<svg width="30" height="22" viewBox="0 0 34 22" fill="none" xmlns="http://www.w3.org/2000/svg">
<path d="M20.8898 5.92464L20.8897 5.92426C20.3204 3.5716 18.8563 1.82427 16.4885 0.716495C15.3421 0.180317 13.9792 0.67489 13.4432 1.82052L13.4432 1.82057C12.9071 2.96619 13.4013 4.32969 14.5469 4.86563L14.547 4.86568C15.1453 5.14576 15.5745 5.45953 15.8794 5.83036C16.187 6.20439 16.3406 6.60319 16.4376 7.0044C16.6308 7.7979 16.5796 8.96449 15.4098 10.0462C13.8001 11.5346 12.8712 13.2124 12.6101 14.8546C12.3502 16.4898 12.7457 18.1245 13.8476 19.5634L20.8898 5.92464ZM20.8898 5.92464C21.5451 8.62303 20.6704 11.4205 18.5196 13.4097C17.9044 13.9783 17.4596 14.5435 17.2565 15.1037C17.0417 15.6962 17.1024 16.2797 17.4842 16.7783C18.2533 17.7826 18.0627 19.2203 17.0585 19.9893L17.0584 19.9894M20.8898 5.92464L17.0584 19.9894M17.0584 19.9894C16.6429 20.3077 16.1537 20.4613 15.6678 20.4613C14.9781 20.4613 14.2985 20.1521 13.8476 19.5634L17.0584 19.9894Z" stroke="black"/>
<path d="M33.061 8.83403L33.061 8.83372C32.5703 6.80682 31.3482 5.32747 29.3937 4.41284L33.061 8.83403ZM33.061 8.83403C33.6266 11.1636 32.9032 13.5375 31.1145 15.1914L31.1145 15.1914C30.5293 15.7325 30.219 16.2509 30.1284 16.5555L30.0549 16.8025L30.2135 17.0057C30.2285 17.0249 30.2474 17.0465 30.2515 17.0511L30.2522 17.0519L30.2522 17.0519L30.2556 17.0558C31.093 18.0037 31.0036 19.4511 30.0557 20.2886L30.0556 20.2887C29.6202 20.6736 29.0799 20.8625 28.5404 20.8625C27.9053 20.8625 27.2756 20.6009 26.8228 20.0886C25.7786 18.9067 25.377 17.5068 25.5704 16.0829C25.765 14.6502 26.5687 13.1556 28.0048 11.8278C28.1681 11.6768 28.3841 11.4482 28.5254 11.1244C28.6712 10.7901 28.7236 10.3864 28.6089 9.91418C28.5455 9.65145 28.4565 9.38362 28.2571 9.13856C28.0602 8.89662 27.7922 8.72091 27.452 8.56173M33.061 8.83403L27.452 8.56173M27.452 8.56173C26.3064 8.0256 25.8122 6.66206 26.3483 5.51646L26.3483 5.51641M27.452 8.56173L26.3483 5.51641M26.3483 5.51641C26.8842 4.37101 28.2466 3.87674 29.3936 4.41276L26.3483 5.51641Z" stroke="black"/>
<path d="M7.94806 8.83407L7.94797 8.83372C7.45726 6.80682 6.23524 5.32747 4.28074 4.41284L7.94806 8.83407ZM7.94806 8.83407C8.51383 11.1636 7.79038 13.5375 6.00152 15.1911L6.00148 15.1912C5.51247 15.6433 5.20932 16.0249 5.12207 16.4054C5.02344 16.8356 5.22687 17.143 5.32809 17.296C5.33264 17.3029 5.33698 17.3095 5.34109 17.3157C6.03476 18.3735 5.73991 19.7935 4.68236 20.4873L4.68224 20.4874M7.94806 8.83407L4.68224 20.4874M1.2353 5.51641L1.23527 5.51647C0.699156 6.66206 1.19336 8.0256 2.33899 8.56173C2.67918 8.72091 2.94722 8.89662 3.14407 9.13856C3.34347 9.38362 3.4325 9.65145 3.49592 9.91418C3.61045 10.3865 3.558 10.7901 3.41213 11.1244C3.27077 11.4484 3.0547 11.677 2.89111 11.8281C1.56602 13.0533 0.802588 14.4084 0.573939 15.7626C0.346145 17.1116 0.64126 18.5034 1.51072 19.8286L1.2353 5.51641ZM1.2353 5.51641C1.77116 4.37101 3.13362 3.87674 4.28056 4.41276L1.2353 5.51641ZM4.68224 20.4874C4.29446 20.7419 3.8593 20.8629 3.42856 20.8629C2.68084 20.8629 1.95067 20.4987 1.51079 19.8287L4.68224 20.4874Z" stroke="black"/>
</svg>
