<svg width="30" height="26" viewBox="0 0 29 26" fill="none" xmlns="http://www.w3.org/2000/svg">
<g clip-path="url(#clip0_619_16125)">
<path d="M-0.566667 26H19.3667C19.606 26 19.8 25.806 19.8 25.5667V22.5333C19.8 22.526 19.7961 22.5203 19.7957 22.513C19.7939 22.4668 19.7848 22.4211 19.7688 22.3778C19.7688 22.3726 19.7662 22.3669 19.764 22.3622C19.7474 22.3228 19.7251 22.2862 19.6977 22.2534L15.1911 16.9269C14.9439 16.6348 14.5805 16.4664 14.1979 16.4667H11.2984C11.6924 15.7028 12.1553 14.9764 12.6812 14.2965C12.7679 14.3095 12.8632 14.3182 12.9624 14.3238L14.9467 14.5167C15.1256 14.8403 15.4419 15.0651 15.8064 15.1277C15.8398 15.1329 15.8727 15.1329 15.9061 15.1355C15.9169 15.1355 15.926 15.142 15.9373 15.142L18.49 15.1667H18.5238C18.8016 15.1615 19.073 15.0822 19.3099 14.937L19.8871 14.9994C19.9028 15.0011 19.9186 15.002 19.9343 15.002H19.9573H19.9889C21.9389 14.8551 23.8378 12.8583 24.6065 10.1487C25.3397 7.56037 24.8743 5.03013 23.4556 3.7843C23.3376 3.31751 23.0152 2.92896 22.5781 2.72697C22.5755 2.72697 22.5742 2.72393 22.5716 2.72263L20.8118 1.937C20.4809 1.73596 20.0737 1.70582 19.7168 1.85597L17.1216 0.559867C17.1095 0.554278 17.097 0.5495 17.0843 0.545567C16.8213 0.381208 16.5368 0.254182 16.2389 0.168133C14.9467 -0.198033 13.5305 0.214933 12.2522 1.33163C11.6456 1.87223 11.1231 2.50024 10.7017 3.19497L3.05167 0.0342333H3.04907C3.02603 0.0271501 3.00238 0.0222179 2.97843 0.0195C2.94738 0.00927531 2.91524 0.00273053 2.88267 0H-0.566667C-0.80599 0 -1 0.19401 -1 0.433333V1.8174C-0.999897 1.8741 -0.988556 1.93021 -0.966633 1.9825C-0.952106 2.01097 -0.934211 2.0376 -0.913333 2.0618C-0.901612 2.0826 -0.888282 2.10245 -0.873467 2.12117C-0.833234 2.16135 -0.785541 2.19329 -0.733067 2.2152L9.40693 6.40813C9.00103 8.04456 9.05516 9.76133 9.56337 11.3689C8.94234 13.0105 8.52778 14.7228 8.32923 16.4667H4.60257C4.22006 16.4665 3.8569 16.6349 3.6098 16.9269L-0.897733 22.2534C-0.925071 22.2862 -0.947412 22.3228 -0.964033 22.3622C-0.9662 22.3669 -0.966633 22.3726 -0.968367 22.3773C-0.984738 22.4208 -0.993957 22.4666 -0.995667 22.513C-0.995667 22.5203 -1 22.526 -1 22.5333V25.5667C-1 25.6816 -0.954345 25.7918 -0.87308 25.8731C-0.791814 25.9543 -0.681594 26 -0.566667 26ZM18.9333 25.1333H-0.133333V22.9667H18.9333V25.1333ZM6.48887 19.5C7.01028 19.2908 7.5618 19.1663 8.12253 19.1312C8.11387 19.3722 8.11257 19.6196 8.1091 19.8653C7.5529 19.8314 7.0058 19.7081 6.48887 19.5ZM10.4214 11.541C10.7028 10.8256 11.0575 10.1413 11.48 9.4991C11.5975 9.31672 11.7278 9.14294 11.87 8.9791C11.8934 8.96133 12.7523 8.34513 16.0209 9.5381C15.6621 10.2043 15.1607 10.783 14.5523 11.2329C14.0838 11.5391 13.6495 11.8945 13.2567 12.2932C12.8667 12.7045 12.5001 13.1274 12.1647 13.5499C11.3808 14.5201 10.726 15.588 10.2168 16.7267L10.2134 16.7345C9.76064 17.7449 9.49279 18.8283 9.42253 19.9333C9.26971 19.9333 9.12036 19.9312 8.97447 19.9268C9.0152 16.6664 9.49837 13.8441 10.4214 11.5414V11.541ZM16.761 7.76403C16.6631 8.10226 16.5426 8.43351 16.4001 8.7555C13.3477 7.62883 12.0277 7.90703 11.519 8.17397C11.5453 7.55935 11.643 6.94989 11.8102 6.35787C12.5074 3.9 14.2343 2.1463 15.5728 2.52243C16.9136 2.90333 17.46 5.30573 16.761 7.76447V7.76403ZM18.6062 2.26937L20.6623 3.29723C20.7695 3.83188 20.7987 4.37922 20.749 4.92223C20.58 6.55062 20.1586 8.1428 19.5001 9.64167C18.986 11.0004 18.2485 12.2636 17.3179 13.3792C17.1745 13.5406 17.0192 13.6911 16.8533 13.8294L15.38 13.6868C16.94 12.7547 18.292 10.881 18.9619 8.52063C19.6236 6.1763 19.433 3.8818 18.6062 2.2698V2.26937ZM10.3841 19.1035C11.0447 19.126 11.6968 19.2603 12.3124 19.5009C11.6636 19.7492 10.9772 19.885 10.2827 19.9026C10.302 19.6346 10.3358 19.3678 10.3841 19.1035ZM18.5169 14.3H18.5043L17.6398 14.2913C17.7729 14.1652 17.8842 14.0469 17.9657 13.9555C18.9543 12.7638 19.7426 11.4192 20.2996 9.97447C20.9935 8.39317 21.4363 6.7133 21.6122 4.99547C21.6662 4.39836 21.6396 3.79671 21.5333 3.20667L22.2215 3.51303C22.2242 3.51283 22.227 3.51283 22.2297 3.51303C22.2323 3.51303 22.234 3.5165 22.2366 3.51737C22.4615 3.63883 22.6169 3.85817 22.657 4.1106C22.6604 4.1262 22.6648 4.14093 22.6695 4.15393C22.7633 4.66025 22.7849 5.1773 22.7337 5.68967C22.6172 7.00917 22.307 8.30432 21.8128 9.53333C21.3826 10.7253 20.7891 11.8517 20.0492 12.8804C20.0019 12.9445 19.9508 13.0165 19.8962 13.0923C19.5513 13.5733 19.0321 14.3 18.5169 14.3ZM23.7728 9.90903C23.1536 12.093 21.6928 13.7908 20.2303 14.0933C20.3681 13.92 20.4903 13.7466 20.6012 13.595L20.746 13.3948C21.5331 12.3019 22.1649 11.1052 22.6236 9.83883C23.1468 8.53141 23.4747 7.15411 23.5969 5.7512C23.6029 5.66453 23.6099 5.55663 23.6159 5.4366C24.185 6.86417 24.2404 8.4451 23.7728 9.90903ZM12.8233 1.98423C13.8733 1.06687 15.0013 0.718467 16.0031 1.00187C18.1395 1.60853 19.0919 4.87413 18.1265 8.28403C17.3031 11.1874 15.3098 13.3302 13.3689 13.4576C13.5353 13.2661 13.7072 13.0763 13.8846 12.8882C14.2354 12.5342 14.6228 12.2184 15.0403 11.9461C15.8965 11.3094 16.5778 10.4666 17.021 9.49607C17.0262 9.4848 17.0306 9.4731 17.0358 9.46183C17.2657 8.99271 17.4527 8.50381 17.5948 8.00107C18.4476 4.99113 17.6637 2.2191 15.809 1.68957C13.9543 1.16003 11.8288 3.1135 10.976 6.12257C10.6906 7.10253 10.5878 8.12662 10.6727 9.14377C10.4721 9.4559 10.2877 9.77815 10.1202 10.1092C9.9032 8.76741 9.98982 7.394 10.3737 6.09007C10.783 4.51628 11.6328 3.09193 12.8233 1.98423ZM2.79643 0.866667L10.2758 3.95807C10.0187 4.4756 9.8039 5.0131 9.63357 5.5653L-0.133333 1.52577V0.866667H2.79643ZM4.26977 17.4867C4.35246 17.389 4.47413 17.3329 4.60213 17.3333H8.24213C8.21324 17.6367 8.18956 17.9442 8.17107 18.2559C7.03053 18.3569 5.5 18.6507 5.5 19.5C5.5 20.3974 7.22553 20.6735 8.35263 20.7567C8.40898 20.7841 8.47066 20.7989 8.53333 20.8C8.57268 20.7978 8.6115 20.7899 8.6486 20.7766C8.88043 20.7909 9.12527 20.8 9.4 20.8C9.53433 20.8 9.66433 20.7961 9.79433 20.7922C9.80719 20.7955 9.82021 20.7981 9.83333 20.8C9.85059 20.7977 9.86767 20.7942 9.88447 20.7896C10.9414 20.7567 13.3 20.5586 13.3 19.5C13.3 18.6507 11.7807 18.3525 10.5852 18.2494C10.6756 17.9388 10.7817 17.6331 10.9032 17.3333H14.1966C14.3241 17.3332 14.4452 17.3894 14.5276 17.4867L18.4324 22.1H0.3676L4.26977 17.4867Z" fill="black"/>
<path d="M5.93281 13.8666C6.65078 13.8666 7.23281 13.2846 7.23281 12.5666C7.23281 11.8486 6.65078 11.2666 5.93281 11.2666C5.21484 11.2666 4.63281 11.8486 4.63281 12.5666C4.63281 13.2846 5.21484 13.8666 5.93281 13.8666ZM5.93281 12.1333C6.17213 12.1333 6.36614 12.3273 6.36614 12.5666C6.36614 12.8059 6.17213 12.9999 5.93281 12.9999C5.69349 12.9999 5.49948 12.8059 5.49948 12.5666C5.49948 12.3273 5.69349 12.1333 5.93281 12.1333Z" fill="black"/>
<path d="M3.33372 10.8335C3.57305 10.8335 3.76706 10.6395 3.76706 10.4001C3.76706 10.1608 3.57305 9.9668 3.33372 9.9668C3.0944 9.9668 2.90039 10.1608 2.90039 10.4001C2.90039 10.6395 3.0944 10.8335 3.33372 10.8335Z" fill="black"/>
<path d="M4.63353 8.66647C4.87285 8.66647 5.06686 8.47246 5.06686 8.23314C5.06686 7.99381 4.87285 7.7998 4.63353 7.7998C4.39421 7.7998 4.2002 7.99381 4.2002 8.23314C4.2002 8.47246 4.39421 8.66647 4.63353 8.66647Z" fill="black"/>
</g>
<defs>
<clipPath id="clip0_619_16125">
<rect width="27.1857" height="26" fill="white" transform="translate(0.960938)"/>
</clipPath>
</defs>
</svg>
