<svg width="30" height="26" viewBox="0 0 26 26" fill="none" xmlns="http://www.w3.org/2000/svg">
<g clip-path="url(#clip0_619_16171)">
<path d="M20.9864 9.26451C21.1164 9.26451 21.2463 9.2149 21.3454 9.11578L22.3389 8.12224C22.5372 7.92394 22.5372 7.6024 22.3389 7.4041C22.1406 7.2058 21.8191 7.2058 21.6207 7.4041L20.6272 8.39763C20.4289 8.59593 20.4289 8.91747 20.6272 9.11578C20.7265 9.21495 20.8564 9.26451 20.9864 9.26451Z" fill="black"/>
<path d="M21.5098 11.1953C21.5098 11.4758 21.7372 11.7031 22.0176 11.7031H23.5632C23.8436 11.7031 24.071 11.4758 24.071 11.1953C24.071 10.9148 23.8436 10.6875 23.5632 10.6875H22.0176C21.7371 10.6875 21.5098 10.9148 21.5098 11.1953Z" fill="black"/>
<path d="M25.4919 13.7104H20.4688C20.1884 13.7104 19.961 13.9378 19.961 14.2183C19.961 14.4987 20.1884 14.7261 20.4688 14.7261H24.9841V15.787C24.9841 16.3451 24.6879 16.8719 24.2111 17.1618L22.7087 18.0754C21.857 18.5933 21.3279 19.5344 21.3279 20.5313C21.3279 21.4076 21.72 22.2248 22.4035 22.7732L23.4607 23.6214V24.9837H13.0846V23.6214L14.1854 22.7382C14.8412 22.2121 15.2173 21.4281 15.2173 20.5873C15.2173 19.5389 14.6355 18.595 13.699 18.1238L13.2877 17.9169V14.7261H15.9044C16.1848 14.7261 16.4122 14.4987 16.4122 14.2183C16.4122 13.9378 16.1848 13.7104 15.9044 13.7104H6.72661C5.9712 13.7104 5.36093 14.2315 5.24256 14.9776C5.12414 15.7236 5.54313 16.4081 6.26141 16.6419L12.5859 18.7008L13.2425 19.0311C13.8342 19.3287 14.2017 19.925 14.2017 20.5873C14.2017 21.1184 13.9641 21.6137 13.5499 21.946L12.259 22.9817C12.1388 23.0781 12.069 23.2238 12.069 23.3778V25.4915C12.069 25.772 12.2963 25.9993 12.5768 25.9993H23.9685C24.2489 25.9993 24.4763 25.772 24.4763 25.4915V23.3778C24.4763 23.2238 24.4063 23.0781 24.2862 22.9817L23.039 21.9811C22.597 21.6264 22.3435 21.0979 22.3435 20.5312C22.3435 19.8866 22.6856 19.278 23.2364 18.9431L24.7387 18.0295C25.5165 17.5566 25.9997 16.6973 25.9997 15.787V14.2182C25.9997 13.9378 25.7723 13.7104 25.4919 13.7104ZM6.24567 15.1367C6.26096 15.0404 6.34083 14.7261 6.72666 14.7261H12.2721V17.5306L6.5759 15.6762C6.20901 15.5567 6.23034 15.233 6.24567 15.1367Z" fill="black"/>
<path d="M11.7038 10.5491C11.7711 10.6657 11.882 10.7508 12.0121 10.7856L13.375 11.1509C13.4183 11.1624 13.4624 11.1682 13.5064 11.1682C13.5948 11.1682 13.6825 11.1451 13.7603 11.1001L17.4281 8.98254C17.5447 8.91521 17.6298 8.8043 17.6647 8.6742L18.0298 7.31131C18.0647 7.18121 18.0464 7.04258 17.9791 6.92599L14.339 0.620994C14.2716 0.504352 14.1607 0.419244 14.0306 0.384408L12.6677 0.0192468C12.5376 -0.0155885 12.399 0.00264163 12.2824 0.0699764L8.61459 2.18757C8.49795 2.2549 8.41284 2.36581 8.37801 2.49591L8.01285 3.8588C7.97796 3.9889 7.99624 4.12753 8.06357 4.24412L8.82152 5.55695L0.747547 10.2184C0.401987 10.4179 0.154839 10.74 0.0515516 11.1254C-0.0517356 11.5108 0.00127908 11.9134 0.200744 12.2589L0.831233 13.351C1.03075 13.6965 1.3528 13.9437 1.73822 14.047C1.8669 14.0814 1.99751 14.0985 2.1273 14.0985C2.38613 14.0985 2.6416 14.0307 2.87174 13.8977L10.9458 9.23619L11.7038 10.5491ZM7.57161 10.0116L6.585 8.30274L9.28047 9.02499L7.57161 10.0116ZM9.30454 2.96187L12.608 1.05461L13.5646 1.3109L16.9944 7.25154L16.7381 8.20809L13.4347 10.1153L12.4781 9.85906L9.04826 3.91842L9.30454 2.96187ZM10.3881 8.2704L7.49534 7.49528L9.32928 6.43646L10.3881 8.2704ZM2.36399 13.0182C2.25339 13.082 2.12451 13.0991 2.00111 13.0659C1.87771 13.0329 1.77463 12.9538 1.71075 12.8432L1.08026 11.7511C1.01638 11.6405 0.999418 11.5117 1.03253 11.3883C1.06564 11.2649 1.1447 11.1618 1.25535 11.0979L5.58341 8.5991L6.6921 10.5194L2.36399 13.0182Z" fill="black"/>
<path d="M17.6758 14.2183C17.6758 14.3518 17.7301 14.4828 17.8246 14.5773C17.919 14.6717 18.05 14.7261 18.1836 14.7261C18.3177 14.7261 18.4482 14.6717 18.5426 14.5773C18.637 14.4828 18.6914 14.3518 18.6914 14.2183C18.6914 14.0847 18.6371 13.9537 18.5426 13.8592C18.4482 13.7648 18.3176 13.7104 18.1836 13.7104C18.05 13.7104 17.919 13.7648 17.8246 13.8592C17.7301 13.9537 17.6758 14.0847 17.6758 14.2183Z" fill="black"/>
</g>
<defs>
<clipPath id="clip0_619_16171">
<rect width="26" height="26" fill="white"/>
</clipPath>
</defs>
</svg>
