<svg width="30" height="27" viewBox="0 0 26 27" fill="none" xmlns="http://www.w3.org/2000/svg">
<path d="M24.8869 9.5773H21.5945L21.5722 9.07812C21.5633 8.87857 21.4601 8.69717 21.296 8.59275L20.499 8.08545L20.9916 7.85062C21.282 7.71214 21.4098 7.35408 21.2765 7.05243L20.7183 5.78966C20.6381 5.6082 20.4769 5.48011 20.2873 5.44715L19.2734 5.27086L19.6872 4.73618C19.8785 4.48896 19.8516 4.12789 19.6258 3.91416L18.6281 2.96995C18.4859 2.83537 18.2894 2.78295 18.1023 2.82952L17.1933 3.05607L17.3817 2.5283C17.4928 2.21711 17.3394 1.87007 17.0397 1.75463L15.7852 1.27164C15.6049 1.20224 15.4038 1.22998 15.2471 1.34594L14.4102 1.96578L14.3387 1.28382C14.3056 0.968522 14.0391 0.733011 13.7356 0.747724L12.3872 0.81264C12.195 0.821868 12.0203 0.929077 11.9198 1.09941L11.4313 1.92713L11.2051 1.41555C11.0718 1.11391 10.7269 0.981126 10.4365 1.11966L9.56013 1.53742C9.41586 1.60619 9.30389 1.73517 9.25295 1.89122L8.80334 3.26853L8.2061 2.77009C7.96804 2.57138 7.62029 2.59939 7.41452 2.83384L6.75695 3.58309C6.65006 3.70491 6.59547 3.86902 6.6073 4.0335L6.70597 5.40522L6.07999 5.16423C5.78043 5.04884 5.44619 5.20816 5.33498 5.51939L4.99972 6.45843C4.94457 6.61295 4.9532 6.78634 5.02348 6.9341L5.64342 8.23817L4.8817 8.32428C4.57803 8.35856 4.35119 8.63367 4.36536 8.95061L4.39334 9.57725H1.11307C0.499332 9.5773 0 10.0958 0 10.7332V14.0252V18.7207C0 19.3581 0.499332 19.8766 1.11307 19.8766H1.77303L0.901824 25.1099C0.802598 25.7061 1.24445 26.2525 1.82828 26.2525H2.63016C3.03961 26.2525 3.39914 25.9807 3.52493 25.5761L4.40182 22.7547H21.5982L22.4751 25.5761C22.6009 25.9808 22.9604 26.2526 23.3699 26.2526H24.1718C24.7543 26.2526 25.1977 25.7074 25.0982 25.1099L24.7487 23.0104C24.7129 22.7952 24.5158 22.6508 24.3086 22.6881C24.1013 22.7254 23.9624 22.93 23.9982 23.1452L24.3477 25.2447C24.3665 25.358 24.2827 25.4616 24.1718 25.4616H23.3699C23.2922 25.4616 23.2239 25.41 23.2001 25.3332L21.1554 18.7546H23.2674L23.6943 21.3194C23.7301 21.5342 23.9268 21.6789 24.1345 21.6417C24.3418 21.6045 24.4807 21.3999 24.4449 21.1846L24.0404 18.7547H24.8871C25.5008 18.7547 26.0002 18.2361 26.0002 17.5988V10.7332C26 10.0958 25.5007 9.5773 24.8869 9.5773ZM5.98457 8.99538C6.38437 8.95013 6.61964 8.505 6.4416 8.13048L5.74123 6.65708L5.98589 5.97175L6.70714 6.24945C7.10333 6.40206 7.51816 6.07711 7.48673 5.64015L7.37273 4.05591L7.86231 3.49803C8.37911 3.86633 8.6027 4.29986 9.05435 4.16322C9.23589 4.10827 9.38047 3.96452 9.4412 3.77858L9.94921 2.22239L10.5889 1.91748L10.8814 2.57914C11.0742 3.01541 11.6598 3.05369 11.9025 2.64263L12.5189 1.59817L13.6001 1.54607L13.6867 2.37226C13.7347 2.82941 14.2386 3.06461 14.5996 2.79725L15.611 2.04815L16.6044 2.43064L16.3606 3.11333C16.286 3.32216 16.3281 3.55546 16.4705 3.7221C16.6129 3.88874 16.8309 3.95999 17.0394 3.90794L18.1864 3.62212L18.9864 4.37917L18.4851 5.02696C18.2077 5.38545 18.4039 5.92176 18.8412 5.99775L20.0665 6.21079L20.5084 7.21064L19.8712 7.51439C19.4502 7.71509 19.4153 8.32344 19.8101 8.57467L20.8158 9.21481L20.832 9.5773H17.1707C17.1701 9.55605 17.1696 9.53469 17.1687 9.51365C17.0619 7.12131 15.1119 5.27529 12.8066 5.3854C10.6174 5.49092 8.89698 7.33941 8.8301 9.57725H5.15582L5.13414 9.09146L5.98457 8.99538ZM12.9095 7.68788C11.9085 7.73614 11.1167 8.56269 11.0511 9.57736H9.59166C9.65677 7.75702 11.0541 6.26184 12.8419 6.17567C14.7253 6.08507 16.3204 7.59412 16.4078 9.55041C16.4082 9.55922 16.4079 9.5685 16.4083 9.57736H14.9487C14.8773 8.48085 13.9718 7.6361 12.9095 7.68788ZM14.1844 9.5773H11.8154C11.8789 8.98293 12.3517 8.50658 12.9447 8.478C13.5755 8.44763 14.1157 8.93463 14.1844 9.5773ZM2.80003 25.3332C2.77616 25.41 2.70791 25.4616 2.63016 25.4616H1.82828C1.71752 25.4616 1.63353 25.3581 1.65242 25.2447L2.54607 19.8766H4.49602L2.80003 25.3332ZM21.3523 21.9637H4.6477L5.29638 19.8766H9.18729C9.76239 19.8766 10.2303 19.3907 10.2303 18.7935V18.7546H12.6191V18.9127C12.6191 19.9982 13.4696 20.8814 14.515 20.8814C15.5603 20.8814 16.4108 19.9982 16.4108 18.9127V18.7546H20.3549L21.3523 21.9637ZM10.2303 17.9636V16.1629H11.9384C12.3138 16.1629 12.6192 16.4801 12.6192 16.8699V17.9636H10.2303ZM13.3809 18.9127V18.7546H15.6491V18.9127C15.6491 19.562 15.1403 20.0904 14.515 20.0904C13.8896 20.0904 13.3809 19.5621 13.3809 18.9127ZM25.2383 17.5987C25.2383 17.7999 25.0807 17.9636 24.8869 17.9636C24.5145 17.9636 13.6382 17.9636 13.3809 17.9636V16.8699C13.3809 16.0439 12.7338 15.3719 11.9383 15.3719H10.2302V14.7128C10.2302 14.1156 9.76234 13.6297 9.18724 13.6297H4.183C3.97267 13.6297 3.80214 13.8068 3.80214 14.0252C3.80214 14.2437 3.97267 14.4207 4.183 14.4207H9.18724C9.34233 14.4207 9.46852 14.5518 9.46852 14.7128V18.7935C9.46852 18.9545 9.34233 19.0856 9.18724 19.0856C8.23372 19.0856 1.94746 19.0856 1.11302 19.0856C0.919293 19.0856 0.761668 18.9219 0.761668 18.7207V14.4207H2.40246C2.6128 14.4207 2.78332 14.2437 2.78332 14.0252C2.78332 13.8068 2.6128 13.6297 2.40246 13.6297H0.761719V10.7332C0.761719 10.532 0.919344 10.3683 1.11307 10.3683H24.8869C25.0807 10.3683 25.2383 10.532 25.2383 10.7332V17.5987Z" fill="black"/>
<path d="M1.83008 16.7533C1.83008 17.5901 2.48561 18.2708 3.29136 18.2708C4.09711 18.2708 4.75264 17.5901 4.75264 16.7533C4.75264 15.9166 4.09711 15.2358 3.29136 15.2358C2.48561 15.2358 1.83008 15.9166 1.83008 16.7533ZM3.99097 16.7533C3.99097 17.1539 3.67714 17.4798 3.29141 17.4798C2.90568 17.4798 2.59185 17.1539 2.59185 16.7533C2.59185 16.3528 2.90568 16.0269 3.29141 16.0269C3.67714 16.0269 3.99097 16.3528 3.99097 16.7533Z" fill="black"/>
<path d="M6.93882 18.2708C7.74456 18.2708 8.4001 17.5901 8.4001 16.7533C8.4001 15.9166 7.74456 15.2358 6.93882 15.2358C6.13307 15.2358 5.47754 15.9166 5.47754 16.7533C5.47754 17.5901 6.13307 18.2708 6.93882 18.2708ZM6.93882 16.0269C7.32455 16.0269 7.63838 16.3528 7.63838 16.7533C7.63838 17.1539 7.32455 17.4798 6.93882 17.4798C6.55308 17.4798 6.23926 17.1539 6.23926 16.7533C6.23926 16.3528 6.55308 16.0269 6.93882 16.0269Z" fill="black"/>
</svg>
