<svg version="1.0" xmlns="http://www.w3.org/2000/svg"
 width="30" height="30" viewBox="0 0 512.000000 512.000000"
 preserveAspectRatio="xMidYMid meet">

<g transform="translate(0.000000,512.000000) scale(0.100000,-0.100000)"
fill="#000000" stroke="none">
<path d="M865 4966 c-72 -18 -150 -61 -205 -112 l-47 -44 -89 0 c-49 0 -111
-6 -139 -14 -182 -48 -327 -196 -370 -377 -21 -91 -21 -427 0 -490 35 -101
130 -169 237 -169 l58 0 0 -1074 c0 -1071 0 -1073 21 -1100 27 -34 77 -36 107
-3 l22 23 0 1077 0 1077 290 0 290 0 0 -1510 0 -1510 -290 0 -290 0 0 309 c0
287 -1 310 -19 332 -13 17 -29 23 -56 23 -27 0 -43 -6 -56 -23 -18 -22 -19
-45 -19 -332 l0 -309 -85 0 c-95 0 -147 -18 -184 -66 -36 -46 -43 -90 -39
-260 3 -155 4 -162 30 -201 16 -24 44 -49 70 -62 l44 -21 2414 0 2414 0 44 21
c26 13 54 38 70 62 26 39 27 46 30 201 5 213 -11 262 -99 306 -38 20 -67 20
-1934 20 l-1895 0 0 820 0 820 1080 0 1080 0 0 -144 c0 -159 11 -210 58 -259
31 -33 92 -67 120 -67 16 0 20 -10 26 -61 14 -135 114 -237 234 -239 l32 0 0
-174 c0 -160 2 -175 21 -200 26 -33 79 -36 109 -6 19 19 20 33 20 200 l0 180
38 0 c20 0 57 10 82 21 90 41 139 112 148 215 5 62 5 62 40 67 54 9 108 53
137 110 23 48 25 60 25 203 l0 151 48 7 c116 15 221 96 279 214 l38 76 3 543
3 543 57 0 c107 0 203 68 237 169 21 63 21 399 0 490 -43 180 -188 329 -366
376 -46 13 -309 15 -1728 15 l-1674 0 -47 44 c-112 105 -278 148 -425 112z
m236 -163 c66 -29 124 -86 156 -151 24 -48 28 -70 28 -137 0 -67 -4 -89 -28
-137 -96 -195 -349 -237 -503 -84 -203 204 -50 549 236 533 36 -2 86 -13 111
-24z m-576 -160 c-4 -10 -9 -54 -12 -98 -9 -138 30 -247 128 -350 95 -100 212
-148 351 -143 l77 2 51 -66 c27 -37 50 -70 50 -73 0 -3 -211 -5 -470 -5 -342
0 -476 3 -495 12 -49 22 -55 51 -55 246 0 152 3 190 20 243 43 138 181 247
314 249 42 0 47 -2 41 -17z m4205 -2 c105 -40 184 -122 219 -228 18 -54 21
-87 21 -242 0 -118 -4 -189 -12 -206 -26 -58 71 -55 -1651 -55 l-1584 0 -160
211 -160 211 15 41 c16 46 22 190 9 250 l-8 37 1630 0 c1576 0 1632 -1 1681
-19z m-3017 -968 c213 -281 389 -523 393 -537 4 -19 0 -31 -20 -50 -31 -32
-57 -33 -90 -3 -20 18 -744 973 -770 1015 -6 10 7 27 40 57 27 24 52 40 55 37
4 -4 180 -237 392 -519z m-255 -134 l162 -216 -17 -39 c-13 -30 -18 -67 -18
-154 0 -112 1 -117 38 -194 124 -261 435 -346 677 -184 72 48 138 131 171 216
33 82 33 242 0 324 -46 118 -153 224 -268 268 -38 15 -90 24 -150 28 l-93 5
-53 71 c-29 39 -57 77 -61 84 -6 9 278 12 1404 12 l1411 0 -3 -533 -3 -534
-30 -49 c-19 -30 -49 -60 -79 -79 l-49 -30 -1654 -3 -1653 -2 0 615 0 616 53
-3 52 -3 163 -216z m717 -131 c56 -28 112 -84 143 -143 23 -43 27 -62 27 -135
-1 -100 -21 -152 -87 -218 -86 -87 -215 -116 -329 -73 -117 44 -204 170 -197
285 l3 51 72 -97 c40 -54 91 -111 113 -127 137 -99 333 6 333 179 0 73 -17
105 -166 298 -14 18 32 7 88 -20z m2115 -1170 c0 -118 -3 -145 -17 -160 -15
-17 -40 -18 -379 -18 l-363 0 -15 22 c-13 18 -16 51 -16 154 0 72 3 134 7 137
3 4 181 7 395 7 l388 0 0 -142z m-200 -363 c0 -43 -23 -90 -49 -105 -27 -14
-254 -13 -285 1 -39 18 -73 109 -49 132 3 4 91 7 195 7 l188 0 0 -35z m878
-1429 c2 -93 -1 -143 -9 -152 -10 -12 -375 -14 -2398 -14 -1843 0 -2390 3
-2399 12 -13 13 -18 279 -5 291 3 4 1087 6 2407 5 l2401 -3 3 -139z"/>
<path d="M2984 3619 c-36 -10 -101 -77 -109 -111 -3 -13 -5 -192 -3 -398 3
-375 3 -375 26 -408 13 -18 41 -41 62 -52 38 -19 61 -20 565 -20 575 0 567 -1
618 59 46 55 49 81 45 462 l-3 356 -27 40 c-16 24 -44 49 -70 62 -43 21 -54
21 -559 20 -283 0 -528 -5 -545 -10z m1050 -155 c3 -9 6 -47 6 -85 l0 -69 -85
0 c-79 0 -88 -2 -112 -26 -20 -20 -24 -31 -19 -57 10 -54 37 -67 132 -67 l84
0 -2 -187 -3 -188 -507 -3 -508 -2 0 190 0 190 300 0 301 0 24 25 c31 30 32
71 3 102 l-21 23 -303 0 -302 0 -4 63 c-2 34 0 72 4 85 l8 22 499 0 c446 0
500 -2 505 -16z"/>
</g>
</svg>
