<svg width="44" height="40" viewBox="0 0 44 40" fill="none" xmlns="http://www.w3.org/2000/svg">
<path d="M41.3969 24.2824C39.9695 22.9389 38.1641 22.0572 36.1908 21.8053V6.43889C36.1908 4.80149 35.5191 3.33202 34.4695 2.24042C33.3779 1.14881 31.9084 0.519043 30.271 0.519043H5.91985C4.28244 0.519043 2.81298 1.1908 1.72137 2.24042C0.629771 3.33202 0 4.80149 0 6.43889V25.7938V27.5992V31.5038C0 33.1412 0.671756 34.6106 1.72137 35.7022C2.81298 36.7938 4.28244 37.4236 5.91985 37.4236H29.4733C31.0267 38.6832 32.958 39.4809 35.0992 39.4809C37.5763 39.4809 39.8015 38.4732 41.3969 36.8778C42.9924 35.2824 44 33.0572 44 30.5801C44 28.103 42.9924 25.8778 41.3969 24.2824ZM2.22519 6.43889C2.22519 5.43126 2.64504 4.50759 3.31679 3.87782C3.98855 3.20607 4.91221 2.78622 5.91985 2.78622H30.271C31.2786 2.78622 32.2023 3.20607 32.874 3.87782C33.5458 4.54958 33.9656 5.47324 33.9656 6.48087V19.5801C33.9656 19.5801 33.9656 21.164 33.9656 21.8053L16.9508 25.7938L2.22519 22.7709C2.16393 22.1638 1.80534 22.3511 2.22519 22.7709V23.1068V6.43889ZM5.87786 35.2824V35.1984C4.87023 35.1984 3.94656 34.7786 3.27481 34.1068C2.64504 33.4351 2.22519 32.5114 2.22519 31.5038V27.5992V26.2977V22.7709L16.9508 25.7938L33.9656 21.8053L33.084 21.9313C32.958 21.9732 32.8321 22.0152 32.7061 22.0572C32.5382 22.0992 32.3702 22.1412 32.1603 22.2251C31.9924 22.2671 31.8244 22.3511 31.6565 22.3931C31.5305 22.4351 31.4466 22.4771 31.3206 22.561C31.1527 22.645 31.0267 22.687 30.9008 22.7709C30.6908 22.8969 30.4809 23.0229 30.271 23.1488C30.145 23.2328 30.0611 23.2748 29.9351 23.3587C29.8511 23.4007 29.8092 23.4427 29.7252 23.4847C29.3473 23.7366 29.0114 24.0305 28.7176 24.3664C27.1221 25.9618 26.1145 28.187 26.1145 30.6641C26.1145 31.2938 26.1985 31.8816 26.3244 32.5114C26.3664 32.6793 26.4084 32.8053 26.4504 32.9732C26.5763 33.3931 26.7023 33.8129 26.8702 34.2328V34.2748C27.0382 34.6106 27.2061 34.9885 27.416 35.2824H5.87786ZM39.7595 35.2824C38.542 36.5 36.9046 37.2137 35.0572 37.2137C33.2939 37.2137 31.6565 36.5 30.4809 35.3664C30.313 35.1984 30.145 34.9885 29.9771 34.8206C29.8511 34.6946 29.7252 34.5267 29.5992 34.4007C29.4313 34.1908 29.3053 33.9389 29.1794 33.687C29.0954 33.519 29.0114 33.3931 28.9275 33.2251C28.8435 33.0152 28.7595 32.7633 28.7176 32.5114C28.6756 32.3435 28.5916 32.1335 28.5496 31.9656C28.4656 31.5458 28.4237 31.0839 28.4237 30.6221C28.4237 28.7748 29.1794 27.1374 30.355 25.9198C31.5305 24.7022 33.2099 23.9885 35.0572 23.9885C36.9046 23.9885 38.542 24.7442 39.7595 25.9198C40.9771 27.1374 41.6908 28.7748 41.6908 30.6221C41.6908 32.4274 40.9351 34.0648 39.7595 35.2824Z" fill="#00AEAE"/>
<path d="M34.2601 35.0306C34.3441 35.1145 34.47 35.1985 34.6379 35.2825C34.7639 35.3245 34.8899 35.3665 35.0158 35.3665C35.0578 35.3665 35.0578 35.3665 35.0578 35.3665C35.0998 35.3665 35.0998 35.3665 35.0998 35.3665C35.2257 35.3665 35.3517 35.3245 35.4776 35.2825C35.6036 35.2405 35.7295 35.1565 35.8555 35.0306L38.4586 32.4275C38.8784 32.0077 38.8784 31.2939 38.4586 30.8321C38.0387 30.4123 37.325 30.4123 36.8631 30.8321L36.1914 31.5039L36.1914 26.8855C36.1914 26.2558 35.6876 25.7519 35.0578 25.7519C34.428 25.7519 33.9242 26.2558 33.9242 26.8855L33.9242 31.5039L33.2524 30.8321C32.8326 30.4123 32.1189 30.4123 31.657 30.8321C31.2372 31.2519 31.2372 31.9657 31.657 32.4275L34.2601 35.0306Z" fill="#00AEAE"/>
<rect x="15.8691" y="8.09839" width="2.16394" height="9.37705" rx="1.08197" transform="rotate(90 15.8691 8.09839)" fill="#00AEAE"/>
<rect x="29.5742" y="13.8689" width="2.16393" height="23.082" rx="1.08197" transform="rotate(90 29.5742 13.8689)" fill="#00AEAE"/>
<rect x="29.5742" y="18.1968" width="2.16393" height="23.082" rx="1.08197" transform="rotate(90 29.5742 18.1968)" fill="#00AEAE"/>
<rect x="22.3594" y="22.5247" width="2.16394" height="15.8689" rx="1.08197" transform="rotate(90 22.3594 22.5247)" fill="#00AEAE"/>
<rect x="11.541" y="28.2949" width="2.16393" height="5.04918" rx="1.08197" transform="rotate(90 11.541 28.2949)" fill="#00AEAE"/>
</svg>
