<svg width="20" height="22" viewBox="0 0 20 22" fill="none" xmlns="http://www.w3.org/2000/svg">
<path d="M19.3046 6.96783L8.11815 20.9423C7.60477 21.5769 6.8482 21.9339 6.03758 21.9471L1.57922 22C1.33603 22 1.13338 21.8413 1.07934 21.6166L0.0660749 17.3727C-0.109558 16.5926 0.0660749 15.7862 0.579462 15.1648L8.50995 5.24911C8.64505 5.09046 8.88824 5.06534 9.05036 5.183L12.3874 7.74786C12.6035 7.91973 12.9008 8.01228 13.2115 7.97262C13.8735 7.89329 14.3193 7.31157 14.2518 6.69019C14.2113 6.37289 14.0491 6.10847 13.833 5.91015C13.7654 5.85727 10.5905 3.39818 10.5905 3.39818C10.3879 3.23953 10.3473 2.94867 10.5095 2.75168L11.7659 1.17707C12.9278 -0.264011 14.9543 -0.39622 16.589 0.859766L18.467 2.30085C19.237 2.88257 19.7504 3.64938 19.9261 4.45585C20.1287 5.34298 19.9126 6.21423 19.3046 6.96783Z" fill="#C8D4D8"/>
</svg>
