<svg width="67" height="67" viewBox="0 0 67 67" fill="none" xmlns="http://www.w3.org/2000/svg">
<path fill-rule="evenodd" clip-rule="evenodd" d="M34.5491 0.701473C35.0834 0.221896 35.7902 -0.0294864 36.5136 0.00275988C51.8062 0.460554 64.587 11.5621 66.9033 26.3998C66.918 26.4884 66.918 26.5788 66.9033 26.6674C66.9532 27.3694 66.7159 28.062 66.2439 28.592C65.772 29.122 65.1043 29.4456 64.3885 29.4914L38.6951 31.1858C37.8454 31.2611 37.0027 30.9815 36.3741 30.4157C35.7454 29.8498 35.3891 29.0502 35.3925 28.2131L33.6655 2.9754V2.55923C33.6969 1.84943 34.0148 1.18105 34.5491 0.701473ZM32.7869 37.7853L55.0565 36.3584L55.208 36.4179C56.1643 36.4335 57.0751 36.8213 57.7399 37.4959C58.4048 38.1705 58.7692 39.0766 58.753 40.0148C57.8754 52.8024 48.5001 63.487 35.7416 66.2396C22.983 68.9922 9.90391 63.1521 3.63941 51.9054C1.79738 48.6661 0.633353 45.0985 0.215645 41.4119C0.0536363 40.3195 -0.017296 39.216 0.00355311 38.1123C0.0457775 24.5146 9.72693 12.7778 23.2731 9.90192C24.9129 9.59498 26.557 10.4137 27.2725 11.8936C27.4506 12.1621 27.5931 12.4518 27.6967 12.7557C27.9506 16.6755 28.214 20.5583 28.4763 24.4246C28.6834 27.4779 28.8899 30.5211 29.0904 33.5642C29.0801 34.281 29.1927 34.9945 29.4237 35.6747C29.9674 37.0131 31.3205 37.8622 32.7869 37.7853Z" fill="white"/>
</svg>
