<svg width="59" height="70" viewBox="0 0 59 70" fill="none" xmlns="http://www.w3.org/2000/svg">
<path d="M58.926 18.0179C58.8422 16.1764 58.8422 14.4185 58.8422 12.6607C58.8422 11.2377 57.7524 10.1495 56.3273 10.1495C45.8484 10.1495 37.8845 7.13602 31.2618 0.690583C30.2558 -0.230194 28.7469 -0.230194 27.7409 0.690583C21.1183 7.13602 13.1543 10.1495 2.67546 10.1495C1.25033 10.1495 0.160533 11.2377 0.160533 12.6607C0.160533 14.4185 0.160532 16.1764 0.0767015 18.0179C-0.258622 35.5964 -0.761609 59.704 28.663 69.8326L29.5014 70L30.3397 69.8326C59.6805 59.704 59.2613 35.6801 58.926 18.0179ZM27.4894 42.3767C26.9864 42.7952 26.3996 43.0463 25.729 43.0463H25.6451C24.9745 43.0463 24.3038 42.7115 23.8847 42.2093L16.0884 33.5874L19.8608 30.2392L25.9805 37.0194L39.5611 24.1285L42.9981 27.8117L27.4894 42.3767Z" fill="white"/>
</svg>
