<svg width="43" height="39" viewBox="0 0 43 39" fill="none" xmlns="http://www.w3.org/2000/svg">
<path d="M40.4561 23.2233C39.0611 21.9103 37.2968 21.0487 35.3683 20.8025V5.7853C35.3683 4.18511 34.7118 2.74905 33.6861 1.68225C32.6193 0.615458 31.1832 0 29.583 0H5.78531C4.18511 0 2.74905 0.656489 1.68225 1.68225C0.615458 2.74905 0 4.18511 0 5.7853V24.7004V26.4647V30.2805C0 31.8807 0.656488 33.3168 1.68225 34.3836C2.74905 35.4504 4.18511 36.0658 5.78531 36.0658H28.8034C30.3216 37.2968 32.209 38.0763 34.3015 38.0763C36.7223 38.0763 38.8969 37.0916 40.4561 35.5324C42.0153 33.9733 43 31.7987 43 29.3779C43 26.9571 42.0153 24.7824 40.4561 23.2233ZM2.17462 5.7853C2.17462 4.80057 2.58492 3.8979 3.24141 3.28244C3.8979 2.62595 4.80057 2.21565 5.78531 2.21565H29.583C30.5677 2.21565 31.4704 2.62595 32.1269 3.28244C32.7834 3.93893 33.1937 4.8416 33.1937 5.82634V18.6279L27.1212 12.5553C26.7109 12.145 26.0134 12.104 25.562 12.5553L16.4122 21.7462L10.2166 15.5095C9.8063 15.0992 9.10878 15.0582 8.65744 15.5095L2.17462 22.0744V5.7853ZM5.74427 33.9733V33.8912C4.75954 33.8912 3.85687 33.4809 3.20038 32.8244C2.58492 32.1679 2.17462 31.2653 2.17462 30.2805V26.4647V25.1927L9.43702 17.8893L15.6326 24.0849C16.0429 24.4952 16.7405 24.4952 17.1918 24.0849L26.3416 14.8941L32.3321 20.9256C32.209 20.9666 32.0859 21.0076 31.9628 21.0487C31.7987 21.0897 31.6345 21.1307 31.4294 21.2128C31.2653 21.2538 31.1011 21.3359 30.937 21.3769C30.8139 21.4179 30.7319 21.459 30.6088 21.541C30.4447 21.6231 30.3216 21.6641 30.1985 21.7462C29.9933 21.8693 29.7882 21.9924 29.583 22.1155C29.4599 22.1975 29.3779 22.2385 29.2548 22.3206C29.1727 22.3616 29.1317 22.4027 29.0496 22.4437C28.6803 22.6899 28.3521 22.9771 28.0649 23.3053C26.5057 24.8645 25.521 27.0391 25.521 29.4599C25.521 30.0754 25.6031 30.6498 25.7261 31.2653C25.7672 31.4294 25.8082 31.5525 25.8492 31.7166C25.9723 32.1269 26.0954 32.5372 26.2595 32.9475V32.9885C26.4237 33.3168 26.5878 33.6861 26.7929 33.9733H5.74427ZM38.8559 33.9733C37.666 35.1632 36.0658 35.8607 34.2605 35.8607C32.5372 35.8607 30.937 35.1632 29.7882 34.0553C29.624 33.8912 29.4599 33.6861 29.2958 33.5219C29.1727 33.3988 29.0496 33.2347 28.9265 33.1116C28.7624 32.9065 28.6393 32.6603 28.5162 32.4141C28.4342 32.25 28.3521 32.1269 28.27 31.9628C28.188 31.7576 28.1059 31.5114 28.0649 31.2653C28.0239 31.1011 27.9418 30.896 27.9008 30.7319C27.8187 30.3216 27.7777 29.8702 27.7777 29.4189C27.7777 27.6135 28.5162 26.0134 29.6651 24.8235C30.8139 23.6336 32.4552 22.9361 34.2605 22.9361C36.0658 22.9361 37.666 23.6746 38.8559 24.8235C40.0458 26.0134 40.7433 27.6135 40.7433 29.4189C40.7433 31.1832 40.0048 32.7834 38.8559 33.9733Z" fill="#00AEAE"/>
<path d="M33.4818 33.7272C33.5639 33.8092 33.6869 33.8913 33.8511 33.9734C33.9742 34.0144 34.0973 34.0554 34.2203 34.0554C34.2614 34.0554 34.2614 34.0554 34.2614 34.0554C34.3024 34.0554 34.3024 34.0554 34.3024 34.0554C34.4255 34.0554 34.5486 34.0144 34.6717 33.9734C34.7948 33.9323 34.9179 33.8503 35.041 33.7272L37.5848 31.1833C37.9952 30.773 37.9952 30.0755 37.5848 29.6241C37.1745 29.2138 36.477 29.2138 36.0257 29.6241L35.3692 30.2806L35.3692 25.7673C35.3692 25.1518 34.8768 24.6594 34.2614 24.6594C33.6459 24.6594 33.1536 25.1518 33.1536 25.7673L33.1536 30.2806L32.4971 29.6241C32.0868 29.2138 31.3892 29.2138 30.9379 29.6241C30.5276 30.0344 30.5276 30.7319 30.9379 31.1833L33.4818 33.7272Z" fill="#00AEAE"/>
</svg>
