<svg width="67" height="67" viewBox="0 0 67 67" fill="none" xmlns="http://www.w3.org/2000/svg">
<path d="M33.5 0C24.6152 0 16.0944 3.52945 9.81192 9.81192C3.52945 16.0944 0 24.6152 0 33.5V67H33.5C42.3848 67 50.9056 63.4705 57.1881 57.1881C63.4705 50.9056 67 42.3848 67 33.5C67 24.6152 63.4705 16.0944 57.1881 9.81192C50.9056 3.52945 42.3848 0 33.5 0ZM38.5677 26.7749L33.4489 45.8788C32.4529 49.5961 33.5346 50.5675 35.0704 50.531C35.3146 50.5223 35.5552 50.5911 35.7579 50.7275C35.9606 50.8639 36.1148 51.061 36.1986 51.2905C36.2824 51.52 36.2915 51.7701 36.2244 52.005C36.1573 52.2399 36.0176 52.4476 35.8253 52.5982C35.0661 53.1908 34.2463 53.7013 33.3795 54.1212C29.87 55.8176 24.4427 54.3585 25.3899 50.824L30.5086 31.7206C31.5048 28.0028 30.4227 27.0316 28.8866 27.0683C28.6424 27.0771 28.4018 27.0083 28.1991 26.8719C27.9965 26.7355 27.8422 26.5384 27.7584 26.3089C27.6746 26.0795 27.6656 25.8293 27.7326 25.5944C27.7997 25.3595 27.9394 25.1519 28.1317 25.0012C28.891 24.4083 29.711 23.8977 30.578 23.4777C34.0875 21.7814 39.5148 23.2405 38.5677 26.7749ZM38.1218 19.5897C37.3883 19.5897 36.6712 19.3722 36.0613 18.9647C35.4514 18.5572 34.9761 17.978 34.6954 17.3003C34.4147 16.6226 34.3412 15.8769 34.4843 15.1575C34.6274 14.438 34.9806 13.7772 35.4993 13.2585C36.018 12.7399 36.6788 12.3866 37.3982 12.2435C38.1177 12.1004 38.8634 12.1739 39.5411 12.4546C40.2187 12.7353 40.798 13.2107 41.2055 13.8205C41.613 14.4304 41.8305 15.1475 41.8305 15.881C41.8305 16.8646 41.4398 17.808 40.7443 18.5035C40.0487 19.199 39.1054 19.5897 38.1218 19.5897Z" fill="white"/>
</svg>
