<svg width="33" height="33" viewBox="0 0 33 33" fill="none" xmlns="http://www.w3.org/2000/svg">
<ellipse cx="16.2264" cy="16.5" rx="16.2264" ry="16.5" fill="white"/>
<path d="M8.28453 16.9086L12.0151 18.3231L13.4693 23.081C13.5326 23.4024 13.9119 23.4667 14.1648 23.2738L16.2514 21.5379C16.4411 21.345 16.7572 21.345 17.0102 21.5379L20.7407 24.3026C20.9936 24.4954 21.373 24.3669 21.4362 24.0454L24.2183 10.5434C24.2815 10.2219 23.9654 9.90044 23.6492 10.029L8.28453 16.0728C7.90516 16.2014 7.90516 16.78 8.28453 16.9086ZM13.2796 17.6159L20.6142 13.0509C20.7407 12.9866 20.8671 13.1795 20.7407 13.2438L14.7339 18.9661C14.5442 19.159 14.3545 19.4161 14.3545 19.7376L14.1648 21.2807C14.1648 21.4736 13.8487 21.5379 13.7855 21.2807L13.0267 18.4517C12.837 18.1302 12.9635 17.7445 13.2796 17.6159Z" fill="#333333"/>
</svg>
