<svg width="61" height="61" viewBox="0 0 61 61" fill="none" xmlns="http://www.w3.org/2000/svg">
<path d="M57.3912 36.4371C55.4122 34.5745 52.9093 33.3522 50.1737 33.0029V11.6995C50.1737 9.42945 49.2424 7.39224 47.7872 5.87888C46.2739 4.36552 44.2366 3.49243 41.9666 3.49243H8.20706C5.93702 3.49243 3.89981 4.42373 2.38645 5.87888C0.873092 7.39224 0 9.42945 0 11.6995V38.5325V41.0354V46.4485C0 48.7186 0.931298 50.7558 2.38645 52.2691C3.89981 53.7825 5.93702 54.6556 8.20706 54.6556H40.8607C43.0143 56.4018 45.6918 57.5077 48.6603 57.5077C52.0945 57.5077 55.1794 56.1107 57.3912 53.8989C59.6031 51.6871 61 48.6022 61 45.168C61 41.7338 59.6031 38.6489 57.3912 36.4371ZM3.08492 11.6995C3.08492 10.3025 3.66698 9.02201 4.59828 8.14892C5.52958 7.21762 6.81011 6.63556 8.20706 6.63556H41.9666C43.3635 6.63556 44.6441 7.21762 45.5754 8.14892C46.5067 9.08022 47.0887 10.3608 47.0887 11.7577V29.918C47.0887 29.918 47.0887 32.1139 47.0887 33.0029L23.5 38.5325L3.08492 34.3417C3 33.5 2.50286 33.7596 3.08492 34.3417V34.8073V11.6995ZM8.14886 51.6871V51.5707C6.75191 51.5707 5.47137 50.9886 4.54008 50.0573C3.66698 49.126 3.08492 47.8455 3.08492 46.4485V41.0354V39.231V34.3417L23.5 38.5325L47.0887 33.0029L45.8664 33.1775C45.6918 33.2357 45.5172 33.294 45.3426 33.3522C45.1097 33.4104 44.8769 33.4686 44.5859 33.585C44.3531 33.6432 44.1202 33.7596 43.8874 33.8178C43.7128 33.876 43.5964 33.9342 43.4218 34.0506C43.1889 34.167 43.0143 34.2253 42.8397 34.3417C42.5487 34.5163 42.2576 34.6909 41.9666 34.8655C41.792 34.9819 41.6756 35.0401 41.501 35.1566C41.3845 35.2148 41.3263 35.273 41.2099 35.3312C40.6861 35.6804 40.2204 36.0878 39.813 36.5535C37.6011 38.7653 36.2042 41.8503 36.2042 45.2844C36.2042 46.1575 36.3206 46.9724 36.4952 47.8455C36.5534 48.0783 36.6116 48.2529 36.6698 48.4857C36.8445 49.0678 37.0191 49.6499 37.2519 50.2319V50.2901C37.4847 50.7558 37.7176 51.2796 38.0086 51.6871H8.14886ZM55.1212 51.6871C53.4332 53.3751 51.1632 54.3646 48.6021 54.3646C46.1574 54.3646 43.8874 53.3751 42.2576 51.8035C42.0248 51.5707 41.792 51.2796 41.5592 51.0468C41.3845 50.8722 41.2099 50.6394 41.0353 50.4648C40.8025 50.1737 40.6279 49.8245 40.4532 49.4753C40.3368 49.2424 40.2204 49.0678 40.104 48.835C39.9876 48.544 39.8712 48.1947 39.813 47.8455C39.7548 47.6127 39.6384 47.3216 39.5802 47.0888C39.4637 46.5067 39.4055 45.8665 39.4055 45.2262C39.4055 42.6651 40.4532 40.3951 42.083 38.7071C43.7128 37.0191 46.041 36.0296 48.6021 36.0296C51.1632 36.0296 53.4332 37.0774 55.1212 38.7071C56.8092 40.3951 57.7987 42.6651 57.7987 45.2262C57.7987 47.7291 56.751 49.9991 55.1212 51.6871Z" fill="#BFBFBF"/>
<path d="M49.7083 38.94C49.5919 38.8236 49.4173 38.7072 49.1845 38.5908C49.0099 38.5326 48.8352 38.4744 48.6606 38.4744C48.6024 38.4744 48.6024 38.4744 48.6024 38.4744C48.5442 38.4744 48.5442 38.4744 48.5442 38.4744C48.3696 38.4744 48.195 38.5326 48.0204 38.5908C47.8457 38.649 47.6711 38.7654 47.4965 38.94L43.8877 42.5488C43.3057 43.1309 43.3057 44.1204 43.8877 44.7606C44.4698 45.3427 45.4593 45.3427 46.0995 44.7606L47.0308 43.8293V50.232C47.0308 51.1051 47.7293 51.8036 48.6024 51.8036C49.4755 51.8036 50.174 51.1051 50.174 50.232V43.8293L51.1053 44.7606C51.6873 45.3427 52.6768 45.3427 53.3171 44.7606C53.8992 44.1786 53.8992 43.1891 53.3171 42.5488L49.7083 38.94Z" fill="#BFBFBF"/>
<rect x="22" y="14" width="3" height="13" rx="1.5" transform="rotate(90 22 14)" fill="#C4C4C4"/>
<rect x="41" y="22" width="3" height="32" rx="1.5" transform="rotate(90 41 22)" fill="#C4C4C4"/>
<rect x="41" y="28" width="3" height="32" rx="1.5" transform="rotate(90 41 28)" fill="#C4C4C4"/>
<rect x="31" y="34" width="3" height="22" rx="1.5" transform="rotate(90 31 34)" fill="#C4C4C4"/>
<rect x="16" y="42" width="3" height="7" rx="1.5" transform="rotate(90 16 42)" fill="#C4C4C4"/>
</svg>
