<svg width="61" height="55" viewBox="0 0 61 55" fill="none" xmlns="http://www.w3.org/2000/svg">
<path d="M22.9916 22.2032C25.3062 22.2032 27.1825 20.3269 27.1825 18.0124C27.1825 15.6978 25.3062 13.8215 22.9916 13.8215C20.6771 13.8215 18.8008 15.6978 18.8008 18.0124C18.8008 20.3269 20.6771 22.2032 22.9916 22.2032Z" fill="#BFBFBF"/>
<path d="M57.3912 33.4371C55.4122 31.5745 52.9093 30.3522 50.1737 30.0029V8.69949C50.1737 6.42945 49.2424 4.39224 47.7872 2.87888C46.2739 1.36552 44.2366 0.492432 41.9666 0.492432H8.20706C5.93702 0.492432 3.89981 1.42373 2.38645 2.87888C0.873092 4.39224 0 6.42945 0 8.69949V35.5325V38.0354V43.4485C0 45.7186 0.931298 47.7558 2.38645 49.2691C3.89981 50.7825 5.93702 51.6556 8.20706 51.6556H40.8607C43.0143 53.4018 45.6918 54.5077 48.6603 54.5077C52.0945 54.5077 55.1794 53.1107 57.3912 50.8989C59.6031 48.6871 61 45.6022 61 42.168C61 38.7338 59.6031 35.6489 57.3912 33.4371ZM3.08492 8.69949C3.08492 7.30255 3.66698 6.02201 4.59828 5.14892C5.52958 4.21762 6.81011 3.63556 8.20706 3.63556H41.9666C43.3635 3.63556 44.6441 4.21762 45.5754 5.14892C46.5067 6.08022 47.0887 7.36075 47.0887 8.7577V26.918L38.4742 18.3035C37.8922 17.7214 36.9027 17.6632 36.2624 18.3035L23.2824 31.3417L14.4933 22.4943C13.9113 21.9123 12.9218 21.8541 12.2815 22.4943L3.08492 31.8073V8.69949ZM8.14886 48.6871V48.5707C6.75191 48.5707 5.47137 47.9886 4.54008 47.0573C3.66698 46.126 3.08492 44.8455 3.08492 43.4485V38.0354V36.231L13.3874 25.8703L22.1765 34.6594C22.7586 35.2415 23.7481 35.2415 24.3884 34.6594L37.3683 21.6212L45.8664 30.1775C45.6918 30.2357 45.5172 30.294 45.3426 30.3522C45.1097 30.4104 44.8769 30.4686 44.5859 30.585C44.3531 30.6432 44.1202 30.7596 43.8874 30.8178C43.7128 30.876 43.5964 30.9342 43.4218 31.0506C43.1889 31.167 43.0143 31.2253 42.8397 31.3417C42.5487 31.5163 42.2576 31.6909 41.9666 31.8655C41.792 31.9819 41.6756 32.0401 41.501 32.1566C41.3845 32.2148 41.3263 32.273 41.2099 32.3312C40.6861 32.6804 40.2204 33.0878 39.813 33.5535C37.6011 35.7653 36.2042 38.8503 36.2042 42.2844C36.2042 43.1575 36.3206 43.9724 36.4952 44.8455C36.5534 45.0783 36.6116 45.2529 36.6698 45.4857C36.8445 46.0678 37.0191 46.6499 37.2519 47.2319V47.2901C37.4847 47.7558 37.7176 48.2796 38.0086 48.6871H8.14886ZM55.1212 48.6871C53.4332 50.3751 51.1632 51.3646 48.6021 51.3646C46.1574 51.3646 43.8874 50.3751 42.2576 48.8035C42.0248 48.5707 41.792 48.2796 41.5592 48.0468C41.3845 47.8722 41.2099 47.6394 41.0353 47.4648C40.8025 47.1737 40.6279 46.8245 40.4532 46.4753C40.3368 46.2424 40.2204 46.0678 40.104 45.835C39.9876 45.544 39.8712 45.1947 39.813 44.8455C39.7548 44.6127 39.6384 44.3216 39.5802 44.0888C39.4637 43.5067 39.4055 42.8665 39.4055 42.2262C39.4055 39.6651 40.4532 37.3951 42.083 35.7071C43.7128 34.0191 46.041 33.0296 48.6021 33.0296C51.1632 33.0296 53.4332 34.0774 55.1212 35.7071C56.8092 37.3951 57.7987 39.6651 57.7987 42.2262C57.7987 44.7291 56.7509 46.9991 55.1212 48.6871Z" fill="#BFBFBF"/>
<path d="M49.7083 35.94C49.5919 35.8236 49.4173 35.7072 49.1845 35.5908C49.0099 35.5326 48.8352 35.4744 48.6606 35.4744C48.6024 35.4744 48.6024 35.4744 48.6024 35.4744C48.5442 35.4744 48.5442 35.4744 48.5442 35.4744C48.3696 35.4744 48.195 35.5326 48.0204 35.5908C47.8457 35.649 47.6711 35.7654 47.4965 35.94L43.8877 39.5488C43.3057 40.1309 43.3057 41.1204 43.8877 41.7606C44.4698 42.3427 45.4593 42.3427 46.0995 41.7606L47.0308 40.8293V47.232C47.0308 48.1051 47.7293 48.8036 48.6024 48.8036C49.4755 48.8036 50.174 48.1051 50.174 47.232V40.8293L51.1053 41.7606C51.6873 42.3427 52.6768 42.3427 53.3171 41.7606C53.8992 41.1786 53.8992 40.1891 53.3171 39.5488L49.7083 35.94Z" fill="#BFBFBF"/>
</svg>
