<svg width="33" height="33" viewBox="0 0 33 33" fill="none" xmlns="http://www.w3.org/2000/svg">
<ellipse cx="16.2264" cy="16.5" rx="16.2264" ry="16.5" fill="white"/>
<path d="M23.5283 11.4003C23.5283 10.165 22.4563 9.07495 21.2414 9.07495H12.0226C10.8078 9.07495 9.73581 10.165 9.73581 11.4003V20.7746C9.73581 22.0099 10.8078 23.0999 12.0226 23.0999H16.6678V17.7952H14.9526V15.4698H16.6678V14.5251C16.6678 12.9264 17.8112 11.5457 19.2404 11.5457H21.0985V13.8711H19.2404C19.0261 13.8711 18.8117 14.0891 18.8117 14.5251V15.4698H21.0985V17.7952H18.8117V23.0999H21.2414C22.4563 23.0999 23.5283 22.0099 23.5283 20.7746V11.4003Z" fill="#333333"/>
</svg>
