<svg width="25" height="24" viewBox="0 0 25 24" fill="none" xmlns="http://www.w3.org/2000/svg">
<path d="M14.8984 23.3513H1.36225C1.27265 23.3513 1.18672 23.3171 1.12336 23.2563C1.06001 23.1955 1.02441 23.113 1.02441 23.027V19.8333C1.02441 19.7473 1.06001 19.6648 1.12336 19.604C1.18672 19.5432 1.27265 19.509 1.36225 19.509H4.993C5.29493 19.5087 5.58439 19.3934 5.79789 19.1884C6.01139 18.9834 6.13149 18.7056 6.13185 18.4157V15.0486C6.1314 14.7588 6.01126 14.481 5.79777 14.2761C5.58428 14.0712 5.29487 13.9559 4.993 13.9556H1.36225C1.27265 13.9556 1.18672 13.9214 1.12336 13.8606C1.06001 13.7998 1.02441 13.7173 1.02441 13.6313V9.96641C1.02441 9.8804 1.06001 9.79791 1.12336 9.73708C1.18672 9.67626 1.27265 9.64209 1.36225 9.64209H14.8984C14.988 9.64209 15.0739 9.67626 15.1373 9.73708C15.2006 9.79791 15.2362 9.8804 15.2362 9.96641V13.6313C15.2362 13.7173 15.2006 13.7998 15.1373 13.8606C15.0739 13.9214 14.988 13.9556 14.8984 13.9556H11.2687C10.9668 13.9559 10.6773 14.0713 10.4639 14.2762C10.2505 14.4812 10.1304 14.7591 10.1302 15.0489V18.4157C10.1304 18.7055 10.2505 18.9834 10.4639 19.1884C10.6773 19.3934 10.9668 19.5087 11.2687 19.509H14.8984C14.988 19.509 15.0739 19.5432 15.1373 19.604C15.2006 19.6648 15.2362 19.7473 15.2362 19.8333V23.027C15.2362 23.113 15.2006 23.1955 15.1373 23.2563C15.0739 23.3171 14.988 23.3513 14.8984 23.3513ZM1.70009 22.7026H14.5606V20.1577H11.2687C10.7877 20.157 10.3266 19.9732 9.98652 19.6467C9.64644 19.3201 9.45511 18.8775 9.45448 18.4157V15.0486C9.45502 14.5868 9.64632 14.1441 9.98642 13.8175C10.3265 13.491 10.7877 13.3072 11.2687 13.3066H14.5606V10.2904H1.70009V13.3066H4.993C5.47407 13.3071 5.93529 13.4908 6.27547 13.8174C6.61564 14.144 6.80699 14.5867 6.80752 15.0486V18.4157C6.80699 18.8775 6.61564 19.3203 6.27547 19.6469C5.93529 19.9734 5.47407 20.1571 4.993 20.1577H1.70009V22.7026Z" fill="black"/>
<path d="M14.8981 10.2909C14.8341 10.2909 14.7714 10.2734 14.7174 10.2406C14.6633 10.2077 14.6201 10.1608 14.5928 10.1053C14.5654 10.0498 14.555 9.98793 14.5629 9.92697C14.5707 9.86602 14.5963 9.80845 14.6369 9.76096L21.495 1.7375L12.6774 1.30355L9.60988 3.76452C9.57595 3.79254 9.53655 3.8138 9.49399 3.82708C9.45142 3.84036 9.40653 3.84538 9.36192 3.84186C9.31732 3.83834 9.27389 3.82635 9.23415 3.80658C9.19441 3.78681 9.15916 3.75966 9.13045 3.7267C9.10174 3.69374 9.08013 3.65564 9.06689 3.61459C9.05364 3.57355 9.04903 3.53039 9.0533 3.48762C9.05758 3.44485 9.07067 3.40333 9.09181 3.36546C9.11295 3.32758 9.14171 3.29412 9.17643 3.26701L12.3454 0.724309C12.41 0.672196 12.4927 0.645236 12.5771 0.648741L22.1954 1.12258C22.2578 1.12559 22.3182 1.14519 22.3698 1.1792C22.4213 1.21321 22.462 1.26029 22.4873 1.3152C22.5127 1.3701 22.5216 1.43068 22.5132 1.49019C22.5048 1.54969 22.4793 1.60578 22.4396 1.6522L15.1592 10.1722C15.1275 10.2093 15.0877 10.2392 15.0425 10.2597C14.9974 10.2802 14.948 10.2909 14.8981 10.2909Z" fill="black"/>
<path d="M1.36237 10.2906C1.29299 10.2906 1.22528 10.2701 1.16845 10.2319C1.11161 10.1937 1.06842 10.1396 1.04472 10.077C1.02103 10.0144 1.01799 9.94631 1.03602 9.88199C1.05404 9.81767 1.09226 9.76023 1.14548 9.71749L4.69278 6.86993C4.72671 6.84191 4.7661 6.82065 4.80867 6.80738C4.85124 6.7941 4.89612 6.78907 4.94073 6.79259C4.98534 6.79611 5.02877 6.80811 5.06851 6.82787C5.10824 6.84764 5.14349 6.8748 5.17221 6.90775C5.20092 6.94071 5.22253 6.97882 5.23577 7.01986C5.24901 7.0609 5.25363 7.10406 5.24935 7.14683C5.24507 7.1896 5.23198 7.23113 5.21085 7.269C5.18971 7.30687 5.16094 7.34033 5.12622 7.36744L1.57893 10.216C1.51805 10.2644 1.44142 10.2908 1.36237 10.2906Z" fill="black"/>
<path d="M6.76701 5.95139C6.69759 5.95148 6.62984 5.93104 6.57295 5.89286C6.51607 5.85467 6.47281 5.80059 6.44908 5.73797C6.42534 5.67535 6.42227 5.60723 6.44029 5.54288C6.45831 5.47853 6.49654 5.42107 6.54978 5.37831L7.31971 4.75885C7.35374 4.73149 7.39305 4.71082 7.43539 4.69804C7.47774 4.68526 7.52229 4.68061 7.56651 4.68436C7.61073 4.68811 7.65375 4.70019 7.6931 4.7199C7.73246 4.7396 7.76739 4.76656 7.79589 4.79923C7.8244 4.8319 7.84592 4.86963 7.85923 4.91029C7.87255 4.95094 7.87739 4.99371 7.87348 5.03616C7.86958 5.07861 7.857 5.1199 7.83647 5.15768C7.81594 5.19547 7.78786 5.229 7.75383 5.25636L6.9839 5.87582C6.92308 5.92467 6.8463 5.95142 6.76701 5.95139Z" fill="black"/>
<path d="M14.8983 13.9555C14.8349 13.9555 14.7728 13.9384 14.7191 13.9061C14.6654 13.8738 14.6222 13.8276 14.5945 13.7729C14.5668 13.7182 14.5557 13.657 14.5625 13.5965C14.5692 13.536 14.5936 13.4786 14.6328 13.4307L21.9976 4.43853L21.8399 1.46253C21.8354 1.37651 21.8667 1.29231 21.9269 1.22845C21.9871 1.16458 22.0712 1.12629 22.1608 1.12199C22.2504 1.11769 22.3381 1.14773 22.4047 1.20551C22.4712 1.26329 22.5111 1.34408 22.5155 1.4301L22.6791 4.52707C22.6832 4.60537 22.6576 4.68244 22.6071 4.74404L15.1656 13.8316C15.1338 13.8704 15.0932 13.9018 15.0469 13.9232C15.0006 13.9447 14.9498 13.9557 14.8983 13.9555Z" fill="black"/>
<path d="M14.901 20.1579C14.8371 20.1579 14.7746 20.1404 14.7206 20.1076C14.6666 20.0748 14.6234 20.028 14.5961 19.9726C14.5687 19.9172 14.5582 19.8555 14.5659 19.7946C14.5736 19.7337 14.5991 19.6762 14.6395 19.6286L23.2091 9.5399C23.2657 9.47319 23.3476 9.43081 23.4368 9.42208C23.526 9.41336 23.6151 9.43899 23.6846 9.49336C23.7541 9.54772 23.7982 9.62635 23.8073 9.71196C23.8164 9.79757 23.7897 9.88314 23.7331 9.94984L15.1635 20.0386C15.1317 20.076 15.0917 20.1061 15.0463 20.1267C15.0009 20.1474 14.9512 20.158 14.901 20.1579Z" fill="black"/>
<path d="M14.904 23.3491C14.8403 23.349 14.778 23.3317 14.7241 23.2991C14.6702 23.2665 14.6271 23.22 14.5996 23.1649C14.5721 23.1098 14.5613 23.0483 14.5686 22.9876C14.5759 22.9269 14.6009 22.8694 14.6408 22.8217L23.2928 12.4661L23.1509 10.0696H21.9364C21.3107 10.0709 20.7027 9.86961 20.2109 9.49819C19.7192 9.12676 19.3722 8.60696 19.2263 8.02281C19.2052 7.93921 19.2195 7.85098 19.2662 7.77753C19.3128 7.70409 19.388 7.65145 19.4751 7.63119C19.5622 7.61094 19.6541 7.62472 19.7306 7.66952C19.8071 7.71431 19.8619 7.78645 19.883 7.87006C19.9936 8.31267 20.2564 8.70655 20.629 8.988C21.0017 9.26944 21.4623 9.42199 21.9364 9.42098H23.4702C23.5566 9.42085 23.6398 9.45251 23.7026 9.50946C23.7655 9.56641 23.8032 9.64431 23.808 9.72714L23.9769 12.5533C23.9817 12.6332 23.9554 12.712 23.9033 12.7745L15.1692 23.2275C15.1374 23.2656 15.097 23.2964 15.0511 23.3174C15.0051 23.3385 14.9549 23.3493 14.904 23.3491Z" fill="black"/>
<path d="M1.36289 20.1576C1.29566 20.1577 1.22991 20.1386 1.17407 20.1027C1.11823 20.0667 1.07484 20.0156 1.04944 19.9558C1.02404 19.896 1.0178 19.8304 1.03151 19.7672C1.04523 19.704 1.07827 19.6461 1.12641 19.6011L6.23452 14.8167C6.26628 14.7868 6.30385 14.7633 6.34508 14.7475C6.38632 14.7316 6.4304 14.7237 6.47482 14.7241C6.51925 14.7246 6.56313 14.7335 6.60398 14.7503C6.64483 14.767 6.68184 14.7914 6.71289 14.8218C6.74395 14.8523 6.76845 14.8884 6.78498 14.928C6.80152 14.9676 6.80977 15.0099 6.80927 15.0525C6.80876 15.0952 6.79952 15.1373 6.78206 15.1765C6.76459 15.2157 6.73925 15.2513 6.70749 15.2811L1.59871 20.0655C1.53562 20.1246 1.451 20.1576 1.36289 20.1576Z" fill="black"/>
</svg>
