<svg width="71" height="71" viewBox="0 0 71 71" fill="none" xmlns="http://www.w3.org/2000/svg">
<path d="M58.5553 3.60547H12.5931C5.64925 3.60547 0 9.24172 0 16.1704V63.1612C0 64.8259 1.0097 66.3458 2.57355 67.0332C3.12608 67.2764 3.71164 67.3945 4.29233 67.3945C5.33291 67.3945 6.35832 67.0148 7.15298 66.2922C12.9144 61.0795 20.3712 58.2086 28.1509 58.2086H28.1531L58.5634 58.2108C65.4206 58.2108 71 52.6195 71 45.7471V16.022C71 9.17564 65.4174 3.60547 58.5553 3.60547V3.60547ZM20.6432 39.8709C20.6432 41.0192 19.712 41.9504 18.5631 41.9504C17.4147 41.9504 16.483 41.0192 16.483 39.8709V33.8376H12.7367V39.8709C12.7367 41.0192 11.805 41.9504 10.6566 41.9504C9.50769 41.9504 8.57653 41.0192 8.57653 39.8709V23.6441C8.57653 22.4952 9.50769 21.564 10.6566 21.564C11.805 21.564 12.7367 22.4957 12.7367 23.6441V29.6774H16.483V23.6441C16.483 22.4952 17.4147 21.564 18.5631 21.564C19.712 21.564 20.6432 22.4957 20.6432 23.6441V39.8709ZM33.1523 29.6774C34.3012 29.6774 35.2324 30.6086 35.2324 31.7575C35.2324 32.9064 34.3012 33.8376 33.1523 33.8376H27.3259V37.3629C27.3259 37.599 27.5177 37.7908 27.7533 37.7908H33.1523C34.3012 37.7908 35.2324 38.722 35.2324 39.8703C35.2324 41.0192 34.3012 41.9504 33.1523 41.9504H27.7533C25.2237 41.9504 23.1658 39.8925 23.1658 37.3629V26.1516C23.1658 23.6219 25.2237 21.564 27.7533 21.564H33.1523C34.3012 21.564 35.2324 22.4952 35.2324 23.6436C35.2324 24.7925 34.3012 25.7236 33.1523 25.7236H27.7533C27.5177 25.7236 27.3259 25.9154 27.3259 26.151V29.6769H33.1523V29.6774ZM46.3554 41.9504H42.5928C39.925 41.9504 37.755 39.7804 37.755 37.1131V23.6441C37.755 22.4952 38.6862 21.564 39.8351 21.564C40.984 21.564 41.9152 22.4952 41.9152 23.6441V37.1131C41.9152 37.4864 42.2191 37.7908 42.5928 37.7908H46.3554C47.5038 37.7908 48.4355 38.722 48.4355 39.8703C48.4355 41.0192 47.5038 41.9504 46.3554 41.9504ZM56.2975 33.6306H54.4244V39.8709C54.4244 41.0192 53.4932 41.9504 52.3443 41.9504C51.1954 41.9504 50.2642 41.0192 50.2642 39.8709V24.5558C50.2642 22.9058 51.6065 21.564 53.256 21.564H56.2975C59.6246 21.564 62.3314 24.2708 62.3314 27.5973C62.3314 30.9244 59.6246 33.6306 56.2975 33.6306Z" fill="white"/>
<path d="M56.2975 25.7242H54.4244V29.4705H56.2975C57.3305 29.4705 58.1712 28.6303 58.1712 27.5973C58.1712 26.5643 57.3305 25.7242 56.2975 25.7242Z" fill="white"/>
</svg>
