<svg width="244" height="129" viewBox="0 0 244 129" fill="none" xmlns="http://www.w3.org/2000/svg">
<path d="M185.601 76.695L242.28 76.6519V124.741H188.144" stroke="#00AEAE" strokeWidth="3" strokeMiterlimit="85.5329" strokeLinecap="round" strokeLinejoin="round"/>
<path d="M56.8118 124.698H1.72754V76.6519H59.9582" stroke="#00AEAE" strokeWidth="3" strokeMiterlimit="85.5329" strokeLinecap="round" strokeLinejoin="round"/>
<path d="M75.9459 77.3325H77.2389L81.2043 88.0286H79.5664L76.5924 79.4027L73.6183 88.0286H71.9805L75.9459 77.3325ZM73.8339 84.2763H79.4802V85.6996H73.8339V84.2763Z" fill="white"/>
<path d="M84.0494 87.6821C83.4891 87.3371 83.0581 86.9058 82.7564 86.302C82.4546 85.6982 82.2822 85.0081 82.2822 84.1886V81.2558C82.2822 80.4795 82.4546 79.7463 82.7564 79.1425C83.0581 78.5387 83.4891 78.0642 84.0494 77.7192C84.6097 77.3742 85.2563 77.2017 85.989 77.2017C86.5924 77.2017 87.1528 77.331 87.67 77.5898C88.1872 77.8486 88.6182 78.2368 88.963 78.7112C89.3079 79.1856 89.5234 79.7463 89.6527 80.3932H88.101C88.0148 80.0482 87.8424 79.7463 87.6269 79.4875C87.4114 79.2287 87.1528 79.0131 86.851 78.8837C86.5493 78.7543 86.2476 78.6681 85.9459 78.6681C85.5149 78.6681 85.127 78.7543 84.7821 78.97C84.4373 79.1856 84.1787 79.4875 84.0063 79.8757C83.8339 80.2638 83.7477 80.6951 83.7477 81.2127V84.1455C83.7477 84.6631 83.8339 85.0943 84.0063 85.4825C84.1787 85.8707 84.4373 86.1726 84.7821 86.3882C85.127 86.6039 85.5149 86.6901 85.9459 86.6901C86.2476 86.6901 86.5493 86.6039 86.851 86.4745C87.1528 86.3451 87.4114 86.1295 87.6269 85.8707C87.8424 85.6119 88.0148 85.31 88.101 84.9218H89.6527C89.5234 85.5688 89.3079 86.1295 88.963 86.6039C88.6182 87.0783 88.1872 87.4665 87.67 87.7252C87.1528 87.984 86.5924 88.1134 85.989 88.1134C85.2563 88.1565 84.6097 88.0272 84.0494 87.6821Z" fill="white"/>
<path d="M93.1002 87.6821C92.5399 87.3371 92.1088 86.9058 91.8071 86.302C91.5054 85.6982 91.333 85.0081 91.333 84.1886V81.2558C91.333 80.4795 91.5054 79.7463 91.8071 79.1425C92.1088 78.5387 92.5399 78.0642 93.1002 77.7192C93.6605 77.3742 94.307 77.2017 95.0398 77.2017C95.6432 77.2017 96.2035 77.331 96.7207 77.5898C97.238 77.8486 97.669 78.2368 98.0138 78.7112C98.3586 79.1856 98.5741 79.7463 98.7034 80.3932H97.1518C97.0656 80.0482 96.8932 79.7463 96.6776 79.4875C96.4621 79.2287 96.2035 79.0131 95.9018 78.8837C95.6001 78.7543 95.2984 78.6681 94.9967 78.6681C94.5657 78.6681 94.1777 78.7543 93.8329 78.97C93.4881 79.1856 93.2295 79.4875 93.0571 79.8757C92.8847 80.2638 92.7985 80.6951 92.7985 81.2127V84.1455C92.7985 84.6631 92.8847 85.0943 93.0571 85.4825C93.2295 85.8707 93.4881 86.1726 93.8329 86.3882C94.1777 86.6039 94.5657 86.6901 94.9967 86.6901C95.2984 86.6901 95.6001 86.6039 95.9018 86.4745C96.2035 86.3451 96.4621 86.1295 96.6776 85.8707C96.8932 85.6119 97.0656 85.31 97.1518 84.9218H98.7034C98.5741 85.5688 98.3586 86.1295 98.0138 86.6039C97.669 87.0783 97.238 87.4665 96.7207 87.7252C96.2035 87.984 95.6432 88.1134 95.0398 88.1134C94.307 88.1565 93.6605 88.0272 93.1002 87.6821Z" fill="white"/>
<path d="M102.152 87.6823C101.592 87.3372 101.161 86.9059 100.816 86.3021C100.514 85.6983 100.342 85.0082 100.342 84.2319V81.2129C100.342 80.4365 100.514 79.7465 100.816 79.1427C101.118 78.5388 101.549 78.0644 102.152 77.7625C102.712 77.4175 103.359 77.2881 104.135 77.2881C104.868 77.2881 105.557 77.4606 106.117 77.7625C106.678 78.1075 107.109 78.5388 107.454 79.1427C107.755 79.7465 107.928 80.4365 107.928 81.2129V84.2319C107.928 85.0082 107.755 85.6983 107.454 86.3021C107.152 86.9059 106.721 87.3804 106.117 87.6823C105.557 88.0273 104.911 88.1567 104.135 88.1567C103.402 88.1567 102.712 88.0273 102.152 87.6823ZM105.299 86.3884C105.643 86.1727 105.902 85.914 106.074 85.5258C106.247 85.1808 106.333 84.7495 106.333 84.275V81.1266C106.333 80.6522 106.247 80.2209 106.074 79.8758C105.902 79.5308 105.643 79.2289 105.299 79.0133C104.954 78.7976 104.566 78.7114 104.135 78.7114C103.704 78.7114 103.316 78.7976 102.971 79.0133C102.626 79.2289 102.368 79.4877 102.195 79.8758C102.023 80.2209 101.937 80.6522 101.937 81.1266V84.275C101.937 84.7495 102.023 85.1808 102.195 85.5258C102.368 85.8708 102.626 86.1727 102.971 86.3884C103.316 86.604 103.704 86.6903 104.135 86.6903C104.566 86.6903 104.954 86.604 105.299 86.3884Z" fill="white"/>
<path d="M110.169 77.3311H111.678V88.0271H110.169V77.3311ZM111.117 86.647H118.229V88.0703H111.117V86.647ZM116.246 77.3311H117.755V88.0271H116.246V77.3311ZM117.712 86.647H119.22V90.313H117.712V86.647Z" fill="white"/>
<path d="M127.539 88.0701V79.6599L127.712 79.8324L122.324 88.0701H121.117V77.374H122.626V85.9136L122.453 85.7411L127.841 77.374H129.048V88.0701H127.539Z" fill="white"/>
<path d="M134.435 77.3311H135.728L139.694 88.0271H138.056L135.082 79.4013L132.108 88.0271H130.47L134.435 77.3311ZM132.323 84.2749H137.969V85.6981H132.323V84.2749Z" fill="white"/>
<path d="M141.288 77.3311H142.797V88.0271H141.288V77.3311ZM142.236 86.647H149.348V88.0703H142.236V86.647ZM147.409 77.3311H148.917V88.0271H147.409V77.3311ZM148.831 86.647H150.339V90.313H148.831V86.647Z" fill="white"/>
<path d="M158.659 88.0701V79.6599L158.831 79.8324L153.443 88.0701H152.193V77.374H153.702V85.9136L153.53 85.7411L158.917 77.374H160.124V88.0701H158.659Z" fill="white"/>
<path d="M165.08 83.0673L166.589 83.4123L164.003 88.0703H162.235L165.08 83.0673ZM163.744 83.3692C163.27 83.1104 162.925 82.7222 162.666 82.2478C162.408 81.7734 162.278 81.2127 162.278 80.5658C162.278 79.9188 162.408 79.3581 162.666 78.8837C162.925 78.4093 163.27 78.0211 163.744 77.7623C164.218 77.5036 164.735 77.3742 165.382 77.3742H168.916V78.7975H165.339C165.037 78.7975 164.778 78.8837 164.563 79.0131C164.347 79.1425 164.175 79.3581 164.046 79.6169C163.916 79.8757 163.873 80.1776 163.873 80.5658C163.873 80.9539 163.916 81.2127 164.046 81.5146C164.175 81.8165 164.347 81.989 164.563 82.1184C164.778 82.2478 165.037 82.3341 165.339 82.3341H168.916V83.7573H165.382C164.778 83.7573 164.218 83.6279 163.744 83.3692ZM168.054 77.3311H169.563V88.0703H168.054V77.3311Z" fill="white"/>
<path d="M18.0169 96.5669H19.4392V107.263H17.9738V99.2409L18.06 99.7153L15.4308 105.797H14.3963L11.7671 99.8879L11.8533 99.284V107.306H10.3447V96.61H11.7671L14.9135 103.683L18.0169 96.5669Z" fill="white"/>
<path d="M21.9824 96.5664H23.491V107.262H21.9824V96.5664ZM22.7152 96.5664H28.8787V97.9897H22.7152V96.5664ZM22.7152 101.267H28.0598V102.691H22.7152V101.267ZM22.7152 105.882H28.8787V107.306H22.7152V105.882Z" fill="white"/>
<path d="M30.042 96.5664H37.5848V97.9897H30.042V96.5664ZM33.0591 97.4721H34.5677V107.306H33.0591V97.4721Z" fill="white"/>
<path d="M41.2486 96.5664H42.5416L46.507 107.262H44.8691L41.8951 98.6366L38.9211 107.262H37.2832L41.2486 96.5664ZM39.0935 103.51H44.7398V104.933H39.0935V103.51Z" fill="white"/>
<path d="M47.7139 105.882C48.1449 105.882 48.4897 105.796 48.7483 105.58C49.0069 105.365 49.2224 105.063 49.3517 104.632C49.481 104.2 49.5241 103.683 49.5241 102.993V96.5664H51.0327V102.906C51.0327 103.942 50.9034 104.761 50.6879 105.408C50.4724 106.055 50.1276 106.529 49.6535 106.831C49.1793 107.133 48.5759 107.306 47.8432 107.306H47.7139V105.882ZM50.4724 96.5664H55.6015V97.9897H50.4724V96.5664ZM54.8257 96.5664H56.3343V107.262H54.8257V96.5664Z" fill="white"/>
<path d="M58.2744 105.882C58.7054 105.882 59.0503 105.796 59.3089 105.58C59.5675 105.365 59.783 105.063 59.9123 104.632C60.0416 104.2 60.0847 103.683 60.0847 102.993V96.5664H61.5933V102.906C61.5933 103.942 61.464 104.761 61.2485 105.408C61.0329 106.055 60.6881 106.529 60.214 106.831C59.7399 107.133 59.1365 107.306 58.4037 107.306H58.2744V105.882ZM61.076 96.5664H66.2052V97.9897H61.076V96.5664ZM65.3862 96.5664H66.8948V107.262H65.3862V96.5664Z" fill="white"/>
<path d="M71.032 106.918C70.4716 106.573 70.0406 106.141 69.6958 105.537C69.3941 104.934 69.2217 104.244 69.2217 103.467V100.448C69.2217 99.6719 69.3941 98.9818 69.6958 98.378C69.9975 97.7742 70.4285 97.2998 71.032 96.9979C71.5923 96.6528 72.2388 96.5234 73.0146 96.5234C73.7474 96.5234 74.437 96.696 74.9973 96.9979C75.5577 97.3429 75.9887 97.7742 76.3335 98.378C76.6352 98.9818 76.8076 99.6719 76.8076 100.448V103.467C76.8076 104.244 76.6352 104.934 76.3335 105.537C76.0318 106.141 75.6008 106.616 74.9973 106.918C74.437 107.263 73.7905 107.392 73.0146 107.392C72.2388 107.392 71.5923 107.263 71.032 106.918ZM74.1784 105.624C74.5232 105.408 74.7818 105.149 74.9542 104.761C75.1266 104.416 75.2128 103.985 75.2128 103.51V100.362C75.2128 99.8875 75.1266 99.4562 74.9542 99.1112C74.7818 98.7662 74.5232 98.4643 74.1784 98.2486C73.8336 98.033 73.4457 97.9467 73.0146 97.9467C72.5836 97.9467 72.1957 98.033 71.8509 98.2486C71.5061 98.4643 71.2475 98.723 71.0751 99.1112C70.9027 99.4562 70.8165 99.8875 70.8165 100.362V103.51C70.8165 103.985 70.9027 104.416 71.0751 104.761C71.2475 105.106 71.5061 105.408 71.8509 105.624C72.1957 105.839 72.5836 105.926 73.0146 105.926C73.4457 105.926 73.8336 105.839 74.1784 105.624Z" fill="white"/>
<path d="M80.3855 106.918C79.8252 106.573 79.3941 106.141 79.0493 105.537C78.7476 104.934 78.5752 104.244 78.5752 103.467V100.448C78.5752 99.6719 78.7476 98.9818 79.0493 98.378C79.351 97.7742 79.782 97.2998 80.3855 96.9979C80.9458 96.6528 81.5923 96.5234 82.3682 96.5234C83.1009 96.5234 83.7905 96.696 84.3509 96.9979C84.9112 97.3429 85.3422 97.7742 85.687 98.378C85.9887 98.9818 86.1611 99.6719 86.1611 100.448V103.467C86.1611 104.244 85.9887 104.934 85.687 105.537C85.3853 106.141 84.9543 106.616 84.3509 106.918C83.7905 107.263 83.144 107.392 82.3682 107.392C81.5923 107.392 80.9458 107.263 80.3855 106.918ZM83.5319 105.624C83.8767 105.408 84.1353 105.149 84.3078 104.761C84.4802 104.416 84.5664 103.985 84.5664 103.51V100.362C84.5664 99.8875 84.4802 99.4562 84.3078 99.1112C84.1353 98.7662 83.8767 98.4643 83.5319 98.2486C83.1871 98.033 82.7992 97.9467 82.3682 97.9467C81.9371 97.9467 81.5492 98.033 81.2044 98.2486C80.8596 98.4643 80.601 98.723 80.4286 99.1112C80.2562 99.4562 80.17 99.8875 80.17 100.362V103.51C80.17 103.985 80.2562 104.416 80.4286 104.761C80.601 105.106 80.8596 105.408 81.2044 105.624C81.5492 105.839 81.9371 105.926 82.3682 105.926C82.7992 105.926 83.1871 105.839 83.5319 105.624Z" fill="white"/>
<path d="M88.3164 96.5664H89.825V107.262H88.3164V96.5664ZM89.0491 96.5664H94.911V97.9897H89.0491V96.5664ZM89.0922 105.882H92.4973C92.8421 105.882 93.1438 105.796 93.3593 105.667C93.618 105.537 93.7904 105.322 93.9197 105.063C94.049 104.804 94.0921 104.459 94.0921 104.114C94.0921 103.726 94.049 103.424 93.9197 103.165C93.7904 102.906 93.618 102.691 93.3593 102.561C93.1007 102.432 92.8421 102.346 92.4973 102.346H89.0922V100.922H92.4542C93.1438 100.922 93.7042 101.052 94.1783 101.311C94.6524 101.569 95.0403 101.914 95.2989 102.389C95.5575 102.863 95.6868 103.467 95.6868 104.114C95.6868 104.804 95.5575 105.365 95.2989 105.839C95.0403 106.314 94.6955 106.702 94.1783 106.917C93.7042 107.176 93.1007 107.306 92.4542 107.306H89.0922V105.882Z" fill="white"/>
<path d="M97.8418 96.5664H99.3504V107.262H97.8418V96.5664ZM98.6176 101.699H102.023C102.368 101.699 102.626 101.613 102.885 101.483C103.143 101.311 103.316 101.095 103.445 100.836C103.574 100.577 103.661 100.232 103.661 99.8874C103.661 99.4992 103.574 99.1973 103.445 98.8954C103.316 98.5935 103.1 98.3778 102.885 98.2485C102.626 98.0759 102.368 98.0328 102.023 98.0328H98.6176V96.6095H101.98C102.626 96.6095 103.186 96.7389 103.661 96.9977C104.135 97.2565 104.523 97.6446 104.781 98.1622C105.04 98.6797 105.169 99.2404 105.169 99.8874C105.169 100.534 105.04 101.095 104.781 101.613C104.523 102.087 104.135 102.475 103.661 102.777C103.186 103.036 102.626 103.165 101.98 103.165H98.6176V101.699Z" fill="white"/>
<path d="M109.479 96.5664H110.772L114.737 107.262H113.1L110.126 98.6366L107.152 107.262H105.514L109.479 96.5664ZM107.324 103.51H112.97V104.933H107.324V103.51Z" fill="white"/>
<path d="M116.203 96.5664H117.712V107.262H116.203V96.5664ZM116.936 96.5664H122.798V97.9897H116.936V96.5664ZM116.979 105.882H120.384C120.729 105.882 121.031 105.796 121.246 105.667C121.505 105.537 121.677 105.322 121.806 105.063C121.936 104.804 121.979 104.459 121.979 104.114C121.979 103.726 121.936 103.424 121.806 103.165C121.677 102.906 121.505 102.691 121.246 102.561C120.987 102.432 120.729 102.346 120.384 102.346H116.979V100.922H120.341C121.031 100.922 121.591 101.052 122.065 101.311C122.539 101.569 122.927 101.914 123.186 102.389C123.444 102.863 123.574 103.467 123.574 104.114C123.574 104.804 123.444 105.365 123.186 105.839C122.927 106.314 122.582 106.702 122.065 106.917C121.591 107.176 120.987 107.306 120.341 107.306H116.979V105.882Z" fill="white"/>
<path d="M128.444 96.5664H129.737L133.702 107.262H132.064L129.09 98.6366L126.116 107.262H124.479L128.444 96.5664ZM126.332 103.51H131.978V104.933H126.332V103.51Z" fill="white"/>
<path d="M133.443 96.5664H140.986V97.9897H133.443V96.5664ZM136.461 97.4721H137.969V107.306H136.461V97.4721Z" fill="white"/>
<path d="M142.366 96.5664H143.875V107.262H142.366V96.5664ZM143.142 105.882H146.245C146.59 105.882 146.892 105.796 147.107 105.667C147.366 105.537 147.538 105.322 147.668 105.063C147.797 104.804 147.84 104.459 147.84 104.114C147.84 103.726 147.797 103.424 147.668 103.165C147.538 102.906 147.366 102.691 147.107 102.561C146.849 102.432 146.59 102.346 146.245 102.346H143.142V100.922H146.202C146.892 100.922 147.452 101.052 147.926 101.311C148.4 101.569 148.788 101.914 149.047 102.389C149.306 102.863 149.435 103.467 149.435 104.114C149.435 104.804 149.306 105.365 149.047 105.839C148.788 106.314 148.444 106.702 147.926 106.917C147.452 107.176 146.849 107.306 146.202 107.306H143.142V105.882ZM152.323 107.306H150.814V96.6095H152.323V107.306Z" fill="white"/>
<path d="M154.865 96.5664H156.374V107.262H154.865V96.5664ZM155.77 105.925H158.658C159.434 105.925 159.994 105.796 160.339 105.494C160.684 105.192 160.856 104.804 160.856 104.287V104.243C160.856 103.898 160.813 103.553 160.684 103.295C160.555 103.036 160.382 102.82 160.081 102.691C159.822 102.561 159.477 102.475 159.046 102.475H155.77V101.138H159.046C159.606 101.138 160.037 101.009 160.296 100.75C160.598 100.491 160.727 100.103 160.727 99.5855C160.727 99.0679 160.555 98.6366 160.253 98.3778C159.951 98.1191 159.477 97.9897 158.831 97.9897H155.77V96.6095H159.089C159.779 96.6095 160.382 96.7389 160.813 96.9546C161.287 97.1702 161.632 97.5153 161.848 97.9465C162.063 98.3778 162.193 98.8954 162.193 99.4992C162.193 99.8874 162.106 100.232 161.977 100.534C161.848 100.836 161.632 101.138 161.331 101.354C161.029 101.569 160.684 101.742 160.253 101.828C160.684 101.871 161.072 102.044 161.374 102.303C161.675 102.561 161.934 102.863 162.106 103.208C162.279 103.553 162.365 103.985 162.365 104.373V104.416C162.365 104.977 162.236 105.494 161.977 105.969C161.718 106.4 161.374 106.745 160.899 107.004C160.425 107.262 159.865 107.349 159.219 107.349H155.77V105.925Z" fill="white"/>
<path d="M167.236 96.5664H168.529L172.494 107.262H170.856L167.882 98.6366L164.908 107.262H163.271L167.236 96.5664ZM165.081 103.51H170.727V104.933H165.081V103.51Z" fill="white"/>
<path d="M175.512 107.306H174.003V96.6097H175.512V107.306ZM174.563 101.268H178.744V102.691H174.563V101.268ZM179.563 106.918C179.003 106.573 178.572 106.141 178.227 105.537C177.925 104.934 177.753 104.244 177.753 103.467V100.448C177.753 99.6719 177.925 98.9818 178.227 98.378C178.529 97.7742 178.96 97.2998 179.563 96.9979C180.123 96.6528 180.77 96.5234 181.546 96.5234C182.279 96.5234 182.968 96.696 183.528 96.9979C184.089 97.3429 184.52 97.7742 184.865 98.378C185.166 98.9818 185.339 99.6719 185.339 100.448V103.467C185.339 104.244 185.166 104.934 184.865 105.537C184.563 106.141 184.132 106.616 183.528 106.918C182.968 107.263 182.322 107.392 181.546 107.392C180.813 107.392 180.123 107.263 179.563 106.918ZM182.71 105.624C183.054 105.408 183.313 105.149 183.485 104.761C183.658 104.416 183.744 103.985 183.744 103.51V100.362C183.744 99.8875 183.658 99.4562 183.485 99.1112C183.313 98.7662 183.054 98.4643 182.71 98.2486C182.365 98.033 181.977 97.9467 181.546 97.9467C181.115 97.9467 180.727 98.033 180.382 98.2486C180.037 98.4643 179.779 98.723 179.606 99.1112C179.434 99.4562 179.348 99.8875 179.348 100.362V103.51C179.348 103.985 179.434 104.416 179.606 104.761C179.779 105.106 180.037 105.408 180.382 105.624C180.727 105.839 181.115 105.926 181.546 105.926C181.977 105.926 182.365 105.839 182.71 105.624Z" fill="white"/>
<path d="M187.494 96.5664H189.003V107.262H187.494V96.5664ZM188.356 105.882H198.011V107.306H188.356V105.882ZM192.408 96.5664H193.916V107.262H192.408V96.5664ZM197.321 96.5664H198.83V107.262H197.321V96.5664ZM198.744 105.882H200.252V109.548H198.744V105.882Z" fill="white"/>
<path d="M208.484 107.306V98.8957L208.656 99.0682L203.269 107.306H202.019V96.6099H203.527V105.149L203.355 104.977L208.742 96.6099H209.949V107.306H208.484Z" fill="white"/>
<path d="M215.079 101.181L217.751 96.6095H219.432L215.898 102.432L213.01 107.349H211.329L215.079 101.181ZM215.165 102.605L214.95 102.216L211.458 96.5664H213.139L215.725 100.922L215.984 101.311L219.648 107.262H217.967L215.165 102.605Z" fill="white"/>
<path d="M67.584 116.061H69.0926V126.757H67.584V116.061ZM68.4891 116.061H74.4372V117.484H68.4891V116.061ZM73.6614 116.061H75.1699V126.757H73.6614V116.061Z" fill="white"/>
<path d="M77.7988 116.061H79.3074V126.757H77.7988V116.061ZM78.5747 121.193H81.9797C82.3245 121.193 82.5831 121.107 82.8417 120.978C83.1004 120.805 83.2728 120.59 83.4021 120.331C83.5314 120.072 83.6176 119.727 83.6176 119.382C83.6176 118.994 83.5314 118.692 83.4021 118.39C83.2728 118.088 83.0573 117.872 82.8417 117.743C82.5831 117.571 82.3245 117.527 81.9797 117.527H78.5747V116.104H81.9366C82.5831 116.104 83.1435 116.234 83.6176 116.492C84.0917 116.751 84.4796 117.139 84.7382 117.657C84.9968 118.174 85.1262 118.735 85.1262 119.382C85.1262 120.029 84.9968 120.59 84.7382 121.107C84.4796 121.582 84.0917 121.97 83.6176 122.272C83.1435 122.53 82.5831 122.66 81.9366 122.66H78.5747V121.193Z" fill="white"/>
<path d="M87.2812 116.061H88.7898V126.757H87.2812V116.061ZM88.014 116.061H94.1776V117.484H88.014V116.061ZM88.014 120.719H93.3586V122.142H88.014V120.719ZM88.014 125.334H94.1776V126.757H88.014V125.334Z" fill="white"/>
<path d="M95.3848 125.334H104.695V126.757H95.3848V125.334ZM95.3848 125.334H96.8933V129H95.3848V125.334ZM95.4279 125.334H95.5141C96.1175 125.334 96.5916 125.075 96.9364 124.601C97.2813 124.126 97.4537 123.393 97.4537 122.487V116.061H98.9622V122.617C98.9622 123.393 98.8329 124.083 98.5743 124.644C98.3157 125.204 97.9278 125.636 97.4537 125.895C96.9795 126.196 96.3761 126.326 95.6865 126.326H95.471V125.334H95.4279ZM98.3588 116.061H103.229V117.484H98.3588V116.061ZM102.41 116.061H103.919V126.757H102.41V116.061ZM103.876 125.334H105.384V129H103.876V125.334Z" fill="white"/>
<path d="M107.281 116.061H108.79V126.757H107.281V116.061ZM108.229 116.061H114.178V117.484H108.229V116.061ZM113.359 116.061H114.867V126.757H113.359V116.061Z" fill="white"/>
<path d="M117.539 116.061H119.048V126.757H117.539V116.061ZM118.272 121.193H121.677C122.022 121.193 122.28 121.107 122.539 120.978C122.797 120.805 122.97 120.59 123.099 120.331C123.229 120.072 123.315 119.727 123.315 119.382C123.315 118.994 123.229 118.692 123.099 118.39C122.97 118.088 122.754 117.872 122.539 117.743C122.28 117.571 122.022 117.527 121.677 117.527H118.272V116.104H121.634C122.28 116.104 122.841 116.234 123.315 116.492C123.789 116.751 124.177 117.139 124.435 117.657C124.694 118.174 124.823 118.735 124.823 119.382C124.823 120.029 124.694 120.59 124.435 121.107C124.177 121.582 123.789 121.97 123.315 122.272C122.841 122.53 122.28 122.66 121.634 122.66H118.272V121.193Z" fill="white"/>
<path d="M133.401 126.757V118.347L133.573 118.519L128.185 126.757H126.936V116.061H128.444V124.601L128.272 124.428L133.659 116.061H134.866V126.757H133.401Z" fill="white"/>
<path d="M139.822 121.797L141.331 122.142L138.745 126.8H136.978L139.822 121.797ZM138.486 122.056C138.012 121.797 137.667 121.409 137.409 120.935C137.15 120.46 137.021 119.9 137.021 119.253C137.021 118.606 137.15 118.045 137.409 117.571C137.667 117.096 138.012 116.708 138.486 116.449C138.96 116.191 139.477 116.061 140.124 116.061H143.658V117.484H140.081C139.779 117.484 139.521 117.571 139.305 117.7C139.09 117.829 138.917 118.045 138.788 118.304C138.659 118.563 138.615 118.865 138.615 119.253C138.615 119.641 138.659 119.9 138.788 120.202C138.917 120.504 139.09 120.676 139.305 120.805C139.521 120.935 139.779 121.021 140.081 121.021H143.658V122.444H140.124C139.477 122.444 138.96 122.315 138.486 122.056ZM142.796 116.018H144.305V126.757H142.796V116.018Z" fill="white"/>
<path d="M146.072 116.061H153.615V117.484H146.072V116.061ZM149.089 116.924H150.598V126.757H149.089V116.924Z" fill="white"/>
<path d="M161.503 126.757V118.347L161.676 118.519L156.288 126.757H155.038V116.061H156.547V124.601L156.374 124.428L161.762 116.061H162.969V126.757H161.503Z" fill="white"/>
<path d="M172.063 126.757V118.347L172.235 118.519L166.848 126.757H165.598V116.061H167.106V124.601L166.934 124.428L172.322 116.061H173.528V126.757H172.063ZM172.063 113.042C172.063 113.775 171.847 114.293 171.416 114.724C170.985 115.112 170.382 115.328 169.606 115.328H169.563C168.787 115.328 168.184 115.112 167.753 114.724C167.322 114.336 167.106 113.775 167.106 113.042H168.313C168.313 113.43 168.442 113.689 168.658 113.905C168.873 114.12 169.175 114.206 169.563 114.206H169.606C169.994 114.206 170.296 114.12 170.511 113.905C170.727 113.689 170.856 113.43 170.856 113.042H172.063Z" fill="white"/>
<path fill-rule="evenodd" clip-rule="evenodd" d="M91.7638 17.9419C90.4708 16.303 88.9622 15.0522 87.2812 14.1465V57.319C91.1173 57.1033 94.5655 55.5076 97.0654 53.0061C99.8239 50.332 101.462 46.666 101.462 42.6119V30.4925L93.4017 20.0983L91.7638 17.9419Z" fill="white"/>
<path fill-rule="evenodd" clip-rule="evenodd" d="M165.338 17.9419L155.684 30.4925V42.6119C155.684 46.666 157.278 50.332 160.037 53.0061C162.537 55.5076 166.028 57.1033 169.907 57.319V14.1465C168.183 15.0953 166.675 16.303 165.338 17.9419Z" fill="white"/>
<path fill-rule="evenodd" clip-rule="evenodd" d="M153.098 8.58289L129.306 39.5067C131.978 41.965 135.512 43.2589 139.004 43.2589C141.159 43.2589 143.314 42.7414 145.34 41.7925L164.261 17.1656C165.77 15.1386 167.666 13.629 169.735 12.6371V11.9901V3.70927C168.141 3.14859 166.503 2.84668 164.822 2.84668C160.425 2.84668 155.943 4.7875 153.098 8.58289Z" fill="white"/>
<path fill-rule="evenodd" clip-rule="evenodd" d="M43.5332 22.7727C44.0935 21.9964 44.8263 21.3063 45.6452 20.6593C45.6883 20.5731 45.7745 20.53 45.9469 20.4437C46.2486 20.2281 46.5072 20.0124 46.8952 19.7968C47.0245 19.6674 47.24 19.5811 47.4124 19.4517C47.7141 19.3223 48.0158 19.1498 48.2744 19.0204C48.4899 18.891 48.7916 18.7185 49.0071 18.6754C49.3089 18.546 49.5675 18.4597 49.783 18.3304C50.0847 18.2441 50.3864 18.201 50.645 18.0285C50.9467 17.9422 51.1622 17.8991 51.4209 17.8128C51.7657 17.7265 52.0674 17.6834 52.4122 17.6834C52.6277 17.5972 52.9294 17.554 53.1449 17.554C53.6622 17.4678 54.1363 17.4678 54.6535 17.4678C54.7397 17.4678 54.7828 17.4678 54.869 17.4678C54.9552 17.4678 54.9983 17.4678 54.9983 17.4678C55.5155 17.4678 55.9466 17.4678 56.4638 17.554C56.5931 17.554 56.7655 17.554 56.8948 17.5972C57.2396 17.5972 57.5413 17.6834 57.843 17.7265L82.5405 57.3625H73.1011C68.0582 57.3625 63.5325 54.7747 60.774 50.5049L58.4034 46.6664L48.7054 30.9673L43.5332 22.7727Z" fill="white"/>
<path fill-rule="evenodd" clip-rule="evenodd" d="M54.9547 16.0874H54.8685C54.7823 16.0874 54.653 16.0874 54.5668 16.0874C54.0064 16.1737 53.4892 16.1737 52.9289 16.2168C52.6272 16.2168 52.4117 16.303 52.1531 16.3462C51.8082 16.4324 51.4203 16.4756 51.0755 16.5618C50.7738 16.6481 50.5152 16.6912 50.1273 16.7775C49.8256 16.9931 49.5669 17.0794 49.2652 17.1225C48.9204 17.2519 48.6187 17.4244 48.317 17.5538C48.0153 17.6832 47.7998 17.7694 47.5412 17.8988C47.2394 18.0282 46.8946 18.2439 46.5929 18.5026C46.3774 18.5458 46.1619 18.7183 45.9464 18.8477C45.6447 19.0633 45.2999 19.279 44.955 19.5378C44.8257 19.6671 44.6533 19.7534 44.6102 19.8828C44.2654 20.1847 43.9206 20.4866 43.5327 20.8316C43.4465 20.8748 43.4034 21.0473 43.3172 21.1335C42.9723 21.4786 42.5844 21.9099 42.3258 22.298L42.1965 22.4274L41.981 22.7293C41.7655 23.0312 41.55 23.3763 41.3345 23.6782L36.6795 31.0964H36.2484C31.2055 31.0964 26.4643 28.3361 23.792 24.0232L34.0071 7.67717C35.8605 4.65811 39.1363 2.84668 42.7999 2.84668C46.3774 2.84668 49.6962 4.65811 51.5927 7.67717L56.8943 16.2168C56.8512 16.2168 56.8512 16.2168 56.765 16.2168C56.2046 16.1737 55.5581 16.0874 54.9547 16.0874Z" fill="white"/>
<path fill-rule="evenodd" clip-rule="evenodd" d="M54.2652 45.415L46.1189 32.3037H37.4555H35.9469C30.7747 32.1743 25.861 29.5003 22.9732 25.2305L18.5337 32.2174L2.8877 56.9737H12.327C17.3699 56.9737 21.8956 54.3859 24.568 50.2024L27.542 45.4582H54.2652V45.415Z" fill="white"/>
<path fill-rule="evenodd" clip-rule="evenodd" d="M188.786 18.2437V42.9137C188.786 50.8495 182.45 57.2757 174.605 57.4483V33.037C174.605 25.015 180.941 18.5456 188.786 18.2437Z" fill="white"/>
<path fill-rule="evenodd" clip-rule="evenodd" d="M228.009 16.95H189.303C182.666 16.95 177.019 21.0042 174.605 26.6972V17.5538C174.605 10.9119 178.916 5.30505 184.907 3.40736C186.2 3.06233 187.665 2.84668 189.088 2.84668H214.863C222.061 3.62301 227.707 9.61799 228.009 16.95Z" fill="white"/>
<path fill-rule="evenodd" clip-rule="evenodd" d="M229.13 42.8276V17.5538V16.95C228.915 10.61 225.035 5.2188 219.604 2.84668H228.699C231.199 2.84668 233.57 3.40736 235.595 4.4856C240.207 6.9871 243.311 11.8176 243.311 17.5538V57.4054C239.561 57.3191 236.113 55.8096 233.44 53.2218C230.639 50.4615 229.13 46.7955 229.13 42.8276Z" fill="white"/>
<path fill-rule="evenodd" clip-rule="evenodd" d="M128.314 40.3261L128.228 40.2399L103.875 8.53976L103.962 8.62602C101.031 4.7875 96.6773 2.84668 92.2378 2.84668C90.6 2.84668 88.919 3.14859 87.3242 3.70927V12.3783V12.6802C89.35 13.6722 91.2896 15.2248 92.712 17.295L102.669 30.1907L120.556 53.4806C122.495 56.0252 125.426 57.4485 128.616 57.4485H129.047C130.857 57.3622 132.193 56.9309 133.443 56.284C134.65 55.5508 135.814 54.4725 136.891 53.0924L143.96 43.8627C142.365 44.3803 140.771 44.5959 139.133 44.5959C135.167 44.5528 131.245 43.0433 128.314 40.3261Z" fill="white"/>
</svg>
