<svg width="29" height="29" viewBox="0 0 29 29" fill="none" xmlns="http://www.w3.org/2000/svg">
<path d="M25.425 16.7597C27.5304 15.8022 29 13.6847 29 11.2258C29 7.87303 26.2721 5.14516 22.9194 5.14516C22.5849 5.14516 22.2542 5.18258 21.9259 5.23637C21.7603 4.64608 21.2233 4.20968 20.5806 4.20968H18.7097C17.4201 4.20968 16.371 5.25882 16.371 6.54839V15.9032C16.371 16.9416 17.0557 17.814 17.994 18.118C17.2559 19.089 16.8387 20.2841 16.8387 21.5161V23.9068L12.629 20.2986V14.0323C12.629 13.2586 11.9995 12.629 11.2258 12.629V7.95161C11.2258 6.66205 10.1767 5.6129 8.8871 5.6129H7.48387V4.67742H6.36269L7.10594 3.81023L6.30189 2.2026L2.74939 3.7251L2.28398 0H0V13.5645V14.0323V29H3.74194V13.5645H2.41027L2.74237 11.2394L6.30142 12.7647L7.10547 11.157L4.20968 7.77855V7.48387H7.48387V6.54839H8.8871C9.66074 6.54839 10.2903 7.17797 10.2903 7.95161V12.629C9.51668 12.629 8.8871 13.2586 8.8871 14.0323V21.7187V25.2581C8.8871 26.0317 9.51668 26.6613 10.2903 26.6613H11.2258C11.8039 26.6613 12.3007 26.31 12.5154 25.8095L15.3953 28.3054C15.9126 28.7535 16.574 29 17.2573 29C17.2573 29 17.2578 29 17.2583 29C17.2742 29 17.2901 28.9981 17.3065 28.9977V29H28.0645V21.5161C28.0645 19.5638 27.0378 17.7719 25.425 16.7597ZM2.80645 14.5V28.0645H0.935484V14.5H2.80645ZM3.27419 6.84306V8.12468L5.99131 11.2941L5.85987 11.5574L2.90234 10.2903H1.93318L1.46544 13.5645H0.935484V0.935484H1.45795L1.92569 4.67742H2.90234L5.8594 3.41031L5.99084 3.67365L3.27419 6.84306ZM6.54839 6.54839H4.75881L5.56052 5.6129H6.54839V6.54839ZM21.9839 6.1756C22.2921 6.119 22.6036 6.08065 22.9194 6.08065C25.7562 6.08065 28.0645 8.38848 28.0645 11.2258C28.0645 12.9681 27.1917 14.5084 25.8624 15.4397L25.2323 15.0613C24.4985 14.6211 24.0045 13.8657 23.8838 13.0294C24.6748 12.8115 25.2581 12.085 25.2581 11.2258C25.2581 10.3128 24.6009 9.55082 23.7351 9.38711L23.2566 7.95161H21.9839V6.1756ZM21.9839 8.8871H22.5821L23.0499 10.2903H23.3871C23.903 10.2903 24.3226 10.7099 24.3226 11.2258C24.3226 11.7417 23.903 12.1613 23.3871 12.1613H22.9194V12.629C22.9194 13.9462 23.621 15.1857 24.751 15.8639L24.9208 15.9659C24.3053 16.2264 23.6289 16.371 22.9194 16.371C22.6036 16.371 22.2921 16.3326 21.9839 16.276V8.8871ZM17.3065 15.9032V14.5H18.7097C19.4833 14.5 20.1129 13.8704 20.1129 13.0968V12.629H19.1774V13.0968C19.1774 13.3545 18.9674 13.5645 18.7097 13.5645H17.3065V8.8871H18.7097C18.9674 8.8871 19.1774 9.09711 19.1774 9.35484V11.6935H20.1129V9.35484C20.1129 8.58119 19.4833 7.95161 18.7097 7.95161H17.3065V6.54839C17.3065 5.77474 17.936 5.14516 18.7097 5.14516H20.5806C20.8384 5.14516 21.0484 5.35518 21.0484 5.6129V16.8387C21.0484 17.0964 20.8384 17.3065 20.5806 17.3065H18.7097C17.936 17.3065 17.3065 16.6769 17.3065 15.9032ZM9.82258 14.0323C9.82258 13.7745 10.0326 13.5645 10.2903 13.5645H11.2258C11.4835 13.5645 11.6935 13.7745 11.6935 14.0323V14.5H9.82258V14.0323ZM9.82258 15.4355H11.6935V19.7396C11.5013 19.6821 11.303 19.6452 11.0995 19.6452H10.9606C10.5401 19.6452 10.15 19.7729 9.82258 19.9885V15.4355ZM11.6935 25.2581C11.6935 25.5158 11.4835 25.7258 11.2258 25.7258H10.2903C10.0326 25.7258 9.82258 25.5158 9.82258 25.2581V23.476L11.6935 25.0976V25.2581ZM17.2578 28.0645H17.2573C16.7985 28.0645 16.3546 27.8989 16.0075 27.5982L10.215 22.5784C9.96571 22.3623 9.82258 22.0489 9.82258 21.7187C9.82258 21.091 10.3329 20.5806 10.9606 20.5806H11.0995C11.3713 20.5806 11.6341 20.6779 11.84 20.8543L17.9374 26.0808L18.5464 25.3703L17.9225 24.8352L20.1129 22.6453L21.7902 24.3226L18.6068 27.506C18.2466 27.8657 17.7676 28.0645 17.2578 28.0645ZM20.7743 21.9839L23.2332 19.525C23.4573 19.3004 23.7552 19.1774 24.0719 19.1774C24.7258 19.1774 25.2581 19.7092 25.2581 20.3631C25.2581 20.6798 25.1346 20.9778 24.9105 21.2018L22.4516 23.6607L20.7743 21.9839ZM27.129 28.0645H19.3711L25.5724 21.8632C25.9728 21.4628 26.1935 20.93 26.1935 20.3631C26.1935 19.1933 25.2417 18.2419 24.0719 18.2419C23.5054 18.2419 22.9722 18.4627 22.5718 18.8636L17.7742 23.6607V21.5161C17.7742 20.2747 18.2536 19.1208 19.1194 18.2419H20.5806C21.2233 18.2419 21.7603 17.8055 21.9259 17.2152C22.2542 17.269 22.5849 17.3065 22.9194 17.3065C23.3525 17.3065 23.7744 17.2592 24.1818 17.1727C25.9494 17.8776 27.129 19.6045 27.129 21.5161V28.0645Z" fill="black"/>
<path d="M19.1777 6.08057H18.2422V7.01605H19.1777V6.08057Z" fill="black"/>
</svg>
