<svg width="30" height="29" viewBox="0 0 30 29" fill="none" xmlns="http://www.w3.org/2000/svg">
<path d="M15.3976 17.9668C15.2855 17.7384 15.0029 17.641 14.7666 17.7495C14.3821 17.9259 13.9789 18.0716 13.5684 18.1827C13.3967 18.2291 13.2666 18.3648 13.2316 18.5338L12.7305 20.9557C12.6811 21.1948 12.4621 21.3684 12.2098 21.3684H10.8428C10.5905 21.3684 10.3716 21.1949 10.3221 20.9557L9.82096 18.5338C9.78598 18.3648 9.65578 18.2291 9.48416 18.1827C8.9042 18.0258 8.34451 17.8016 7.82062 17.5163C7.66518 17.4317 7.47375 17.4387 7.32539 17.5343L5.19926 18.9044C4.98938 19.0397 4.70754 19.0127 4.52906 18.8403L3.5625 17.9059C3.38408 17.7334 3.35625 17.4609 3.49611 17.258L4.9135 15.2027C5.01246 15.0593 5.01967 14.8743 4.93207 14.724C4.63693 14.2175 4.40502 13.6764 4.24277 13.1159C4.19473 12.9499 4.05439 12.8241 3.87949 12.7904L1.37414 12.306C1.12676 12.2582 0.947168 12.0464 0.947168 11.8025V10.4812C0.947168 10.2373 1.1267 10.0256 1.37414 9.97776L3.87949 9.49337C4.05439 9.45955 4.19473 9.3337 4.24277 9.16779C4.40508 8.60717 4.63699 8.06613 4.93207 7.55971C5.01961 7.4095 5.0124 7.22445 4.9135 7.08098L3.49623 5.02595C3.35631 4.82301 3.3842 4.55062 3.56262 4.37809L4.52918 3.44375C4.7076 3.27128 4.98949 3.24437 5.19938 3.37958L7.32551 4.74971C7.47387 4.84538 7.66535 4.85229 7.82074 4.76767C8.34463 4.48243 8.90432 4.25824 9.48428 4.10135C9.65602 4.0549 9.78615 3.91925 9.82107 3.75018L10.3222 1.32834C10.3716 1.0892 10.5906 0.915596 10.8429 0.915596H12.2099C12.4622 0.915596 12.6812 1.08914 12.7307 1.32834L13.2318 3.75018C13.2667 3.91925 13.3969 4.0549 13.5686 4.10135C14.1485 4.25824 14.7082 4.48243 15.2321 4.76767C15.3875 4.85229 15.579 4.84532 15.7273 4.74971L17.8535 3.37958C18.0633 3.24432 18.3451 3.27134 18.5237 3.44375L19.4902 4.37809C19.6686 4.55056 19.6965 4.82301 19.5566 5.02595L18.1392 7.08121C18.0403 7.22468 18.033 7.40967 18.1206 7.55994C18.4157 8.06636 18.6476 8.60739 18.8099 9.16802C18.858 9.33404 18.9983 9.45983 19.1732 9.49359L21.6786 9.97798C21.926 10.0258 22.1055 10.2375 22.1055 10.4814V11.8028C22.1055 12.0467 21.926 12.2583 21.6786 12.3062L19.1732 12.7906C18.9983 12.8244 18.858 12.9503 18.8099 13.1163C18.6922 13.5229 18.5369 13.9219 18.3482 14.302C18.235 14.53 18.3345 14.8035 18.5704 14.9129C18.8062 15.0223 19.0892 14.9261 19.2023 14.6981C19.3726 14.3551 19.5188 13.9984 19.6383 13.6346L21.8644 13.2042C22.5528 13.071 23.0526 12.4816 23.0526 11.8027V10.4813C23.0526 9.80245 22.5528 9.21311 21.8641 9.07989L19.6381 8.64953C19.4921 8.20524 19.3071 7.7733 19.0853 7.35988L20.3446 5.53385C20.7342 4.96897 20.6565 4.21055 20.1599 3.73046L19.1933 2.79612C18.6966 2.31604 17.9121 2.24104 17.3278 2.61753L15.4388 3.83485C15.0111 3.62058 14.5642 3.44165 14.1046 3.30051L13.6594 1.14873C13.5218 0.483145 12.9121 0 12.2098 0H10.8428C10.1405 0 9.53086 0.483145 9.39305 1.1489L8.94785 3.30068C8.48824 3.44182 8.04141 3.6207 7.61373 3.83502L5.72484 2.6177C5.14055 2.24116 4.35592 2.31615 3.85928 2.79629L2.89271 3.73063C2.39613 4.21072 2.31844 4.96908 2.70797 5.53402L3.96727 7.36005C3.74561 7.77347 3.56051 8.20536 3.41449 8.6497L1.18846 9.08006C0.499805 9.21316 0 9.80257 0 10.4815V11.8028C0 12.4817 0.499805 13.0711 1.18852 13.2043L3.41449 13.6346C3.56045 14.0789 3.74555 14.5108 3.96727 14.9243L2.70797 16.7503C2.31844 17.3152 2.39607 18.0736 2.89271 18.5537L3.85928 19.4881C4.35592 19.9681 5.14049 20.0431 5.72484 19.6666L7.61385 18.4493C8.04152 18.6636 8.4883 18.8425 8.94797 18.9837L9.39316 21.1356C9.53086 21.8011 10.1406 22.2843 10.8429 22.2843H12.2098C12.9121 22.2843 13.5218 21.8011 13.6596 21.1354L14.1048 18.9836C14.4698 18.8715 14.828 18.7352 15.1729 18.5769C15.4092 18.4684 15.5098 18.1953 15.3976 17.9668Z" fill="black"/>
<path d="M15.6296 13.6865C15.6987 13.7208 15.7726 13.737 15.8453 13.737C16.0174 13.737 16.1834 13.6461 16.2672 13.488C16.6492 12.7678 16.8512 11.9567 16.8512 11.1422C16.8512 8.30413 14.4626 5.99512 11.5266 5.99512C10.1299 5.99512 8.80998 6.51406 7.81002 7.4565C7.6227 7.63299 7.61889 7.92294 7.80147 8.10396C7.98405 8.28498 8.28393 8.28878 8.47125 8.11223C9.29326 7.33761 10.3783 6.91094 11.5265 6.91094C13.9401 6.91094 15.9038 8.80908 15.9038 11.1423C15.9038 11.8216 15.7424 12.4703 15.4242 13.0702C15.3049 13.2951 15.3968 13.571 15.6296 13.6865Z" fill="black"/>
<path d="M7.09266 9.18276C6.84521 9.10046 6.5758 9.22762 6.49066 9.46676C6.29924 10.0047 6.20215 10.5684 6.20215 11.142C6.20215 13.9802 8.59078 16.2891 11.5267 16.2891C12.6559 16.2891 13.7347 15.9518 14.6467 15.3134C14.8586 15.165 14.906 14.8787 14.7526 14.6739C14.5992 14.4691 14.3029 14.4233 14.091 14.5716C13.3417 15.096 12.455 15.3733 11.5267 15.3733C9.11303 15.3733 7.14943 13.4751 7.14943 11.1419C7.14943 10.6699 7.22912 10.2064 7.38639 9.76452C7.47146 9.52544 7.33998 9.26495 7.09266 9.18276Z" fill="black"/>
<path d="M29.0885 20.0121L27.7188 19.7473C27.6353 19.5073 27.5348 19.273 27.4183 19.0465L28.1933 17.9229C28.4921 17.4896 28.4325 16.9079 28.0516 16.5397L27.4165 15.9257C27.0355 15.5575 26.4338 15.4999 25.9856 15.7888L24.8232 16.5379C24.5889 16.4253 24.3465 16.3281 24.0982 16.2475L23.8243 14.9235C23.7187 14.4128 23.251 14.0422 22.7124 14.0422H21.8141C21.2755 14.0422 20.8078 14.4128 20.7021 14.9235L20.4282 16.2475C20.18 16.3282 19.9376 16.4253 19.7032 16.5379L18.5409 15.7888C18.0926 15.5 17.4909 15.5575 17.11 15.9257L16.4748 16.5397C16.0939 16.9079 16.0344 17.4896 16.3332 17.9229L17.1081 19.0465C16.9479 19.3579 16.8181 19.684 16.7211 20.0194C16.6506 20.263 16.7978 20.5156 17.0496 20.5838C17.3016 20.6519 17.5629 20.5097 17.6335 20.2662C17.7366 19.9098 17.884 19.566 18.0715 19.2442C18.1591 19.094 18.1519 18.9089 18.0529 18.7655L17.1215 17.4149C17.0723 17.3436 17.0821 17.2479 17.1448 17.1873L17.78 16.5733C17.8427 16.5127 17.9417 16.5033 18.0155 16.5507L19.4126 17.4512C19.561 17.5468 19.7524 17.5537 19.9079 17.4691C20.2408 17.2879 20.5964 17.1453 20.9651 17.0457C21.1368 16.9992 21.2669 16.8636 21.3019 16.6945L21.6311 15.1031C21.6484 15.0191 21.7254 14.9581 21.8141 14.9581H22.7124C22.801 14.9581 22.878 15.0191 22.8954 15.1031L23.2246 16.6946C23.2596 16.8637 23.3898 16.9993 23.5614 17.0458C23.9301 17.1455 24.2857 17.288 24.6186 17.4692C24.774 17.5538 24.9655 17.5469 25.1138 17.4513L26.511 16.5508C26.5848 16.5033 26.6838 16.5127 26.7465 16.5734L27.3817 17.1874C27.4443 17.248 27.4541 17.3437 27.405 17.415L26.4735 18.7656C26.3746 18.9091 26.3673 19.0941 26.4549 19.2443C26.6424 19.5662 26.7899 19.9099 26.893 20.2663C26.941 20.4323 27.0814 20.5581 27.2563 20.5919L28.9026 20.9101C28.9895 20.9269 29.0526 21.0013 29.0526 21.087V21.9554C29.0526 22.041 28.9895 22.1154 28.9026 22.1323L27.2562 22.4505C27.0813 22.4844 26.9409 22.6102 26.8929 22.7761C26.7897 23.1325 26.6423 23.4763 26.4548 23.7981C26.3673 23.9483 26.3745 24.1334 26.4734 24.2768L27.4049 25.6274C27.454 25.6987 27.4442 25.7944 27.3815 25.855L26.7464 26.469C26.6838 26.5296 26.5847 26.539 26.5109 26.4916L25.1137 25.5911C24.9654 25.4955 24.7739 25.4886 24.6185 25.5732C24.2856 25.7544 23.93 25.8969 23.5613 25.9966C23.3896 26.0431 23.2594 26.1787 23.2245 26.3478L22.8953 27.9392C22.8779 28.0232 22.8009 28.0842 22.7123 28.0842H21.814C21.7254 28.0842 21.6484 28.0232 21.631 27.9392L21.3017 26.3477C21.2668 26.1786 21.1366 26.043 20.9649 25.9965C20.5963 25.8968 20.2406 25.7543 19.9077 25.5731C19.7523 25.4885 19.5608 25.4954 19.4125 25.591L18.0153 26.4914C17.9416 26.539 17.8425 26.5296 17.7798 26.4689L17.1447 25.8549C17.0821 25.7943 17.0723 25.6986 17.1214 25.6273L18.0528 24.2767C18.1518 24.1332 18.159 23.9482 18.0714 23.798C17.8839 23.4761 17.7365 23.1324 17.6334 22.776C17.5853 22.61 17.445 22.4842 17.2701 22.4504L15.6238 22.1322C15.5369 22.1154 15.4738 22.041 15.4738 21.9553V21.0869C15.4738 21.0013 15.5369 20.9268 15.6238 20.91L15.7246 20.8905C15.9811 20.8409 16.1475 20.5997 16.0961 20.3517C16.0448 20.1037 15.7955 19.9432 15.5386 19.9926L15.4379 20.012C14.9097 20.1142 14.5264 20.5663 14.5264 21.087V21.9553C14.5264 22.476 14.9097 22.9281 15.438 23.0302L16.8077 23.295C16.8912 23.535 16.9916 23.7693 17.1081 23.9958L16.3331 25.1194C16.0343 25.5527 16.0939 26.1344 16.4748 26.5026L17.1099 27.1166C17.4909 27.4848 18.0926 27.5424 18.5408 27.2535L19.7032 26.5044C19.9375 26.617 20.1799 26.7142 20.4282 26.7948L20.7021 28.1188C20.8079 28.6295 21.2755 29.0001 21.8141 29.0001H22.7124C23.251 29.0001 23.7187 28.6295 23.8244 28.1188L24.0983 26.7948C24.3466 26.7141 24.589 26.617 24.8233 26.5044L25.9857 27.2535C26.4339 27.5423 27.0357 27.4848 27.4165 27.1165L28.0517 26.5026C28.4326 26.1343 28.4921 25.5526 28.1934 25.1194L27.4184 23.9957C27.5349 23.7692 27.6354 23.5349 27.7188 23.2949L29.0885 23.0301C29.6167 22.928 30 22.476 30 21.9553V21.0869C30.0001 20.5663 29.6167 20.1142 29.0885 20.0121Z" fill="black"/>
<path d="M22.2631 19.8726C23.2034 19.8726 23.9683 20.6121 23.9683 21.521C23.9683 21.7739 24.1804 21.9789 24.442 21.9789C24.7036 21.9789 24.9157 21.7739 24.9157 21.521C24.9157 20.1071 23.7257 18.9568 22.263 18.9568C20.8003 18.9568 19.6104 20.1071 19.6104 21.521C19.6104 22.9349 20.8003 24.0853 22.263 24.0853C22.8555 24.0853 23.4158 23.9006 23.8837 23.5512C24.0907 23.3966 24.1288 23.109 23.9689 22.9088C23.8089 22.7087 23.5114 22.6718 23.3044 22.8264C23.0039 23.0508 22.6438 23.1694 22.263 23.1694C21.3227 23.1694 20.5578 22.43 20.5578 21.521C20.5578 20.612 21.3228 19.8726 22.2631 19.8726Z" fill="black"/>
<path d="M14.4125 11.142C14.4125 9.60377 13.1178 8.35229 11.5265 8.35229C9.93525 8.35229 8.64062 9.60383 8.64062 11.142C8.64062 12.6803 9.93525 13.9317 11.5265 13.9317C13.1178 13.9317 14.4125 12.6802 14.4125 11.142ZM9.58797 11.142C9.58797 10.1088 10.4577 9.26806 11.5265 9.26806C12.5954 9.26806 13.4651 10.1088 13.4651 11.142C13.4651 12.1753 12.5955 13.016 11.5265 13.016C10.4576 13.016 9.58797 12.1753 9.58797 11.142Z" fill="black"/>
</svg>
